<svg xmlns="http://www.w3.org/2000/svg" viewBox="0 0 229.71 202.13" style="enable-background:new 0 0 229.71 202.13" xml:space="preserve"><style>.st0{fill:#000}</style><g id="ARTE"/><g id="Capa_2"><path class="st0" d="m193.45 154.9-21.12 31.74c-.37.56-1 .89-1.67.89H40.27c-1.6 0-2.55-1.78-1.67-3.11l19.64-29.53h135.21z"/><path class="st0" d="m15.13 74.75 43.12 80.15 21.05-31.64c.41-.61.45-1.4.1-2.05L37.85 44c-.72-1.33-2.6-1.42-3.44-.16L15.22 72.69c-.41.62-.44 1.41-.09 2.06zm67.6 0 42.88 79.71c.11.2.39.22.52.02l20.76-31.21c.41-.61.45-1.4.1-2.05L105.45 44c-.72-1.33-2.6-1.42-3.44-.16L82.82 72.69c-.41.62-.44 1.41-.09 2.06zm67.6 0 43.12 80.15 21.05-31.64c.41-.61.45-1.4.1-2.05L173.05 44c-.72-1.33-2.6-1.42-3.44-.16l-19.19 28.85c-.41.62-.44 1.41-.09 2.06zm-92.55-38.3c1.21-1.75 2.65-3.33 4.15-4.85a49.95 49.95 0 0 1 4.8-4.27c3.37-2.66 7.06-4.98 10.98-6.87 3.92-1.9 8.08-3.39 12.38-4.39 4.3-.99 8.74-1.47 13.17-1.47 2.22-.02 4.43.2 6.64.39 2.19.36 4.38.64 6.52 1.22 2.16.47 4.24 1.2 6.32 1.89 1.02.39 2.03.82 3.04 1.23l1.51.64 1.46.73c7.78 3.9 14.67 9.24 20.11 15.74-7.53-3.9-14.92-7.44-22.51-9.93l-1.41-.49-1.44-.39-2.86-.81c-1.94-.39-3.83-.94-5.77-1.2-3.85-.7-7.74-1.06-11.63-1.04-7.78-.06-15.57 1.23-23.16 3.67-3.81 1.19-7.56 2.69-11.27 4.39-3.75 1.7-7.4 3.62-11.03 5.81z"/></g></svg>