<?xml version="1.0" encoding="utf-8"?>
<!-- Generator: Adobe Illustrator 24.1.0, SVG Export Plug-In . SVG Version: 6.00 Build 0)  -->
<svg version="1.1" id="Capa_2" xmlns="http://www.w3.org/2000/svg" xmlns:xlink="http://www.w3.org/1999/xlink" x="0px" y="0px"
	 viewBox="0 0 33.37 10.93" style="enable-background:new 0 0 33.37 10.93;" xml:space="preserve">
<style type="text/css">
	.st0{fill:#545454;}
	.st1{fill:#FFFFFF;}
	.st2{fill:none;stroke:#FFFFFF;stroke-width:0.75;stroke-miterlimit:10;}
	.st3{fill:none;stroke:#000000;stroke-width:2.001;stroke-miterlimit:10;}
	.st4{fill:none;stroke:#000000;stroke-miterlimit:10;}
</style>
<g>
	<polygon class="st0" points="18.19,0 5.79,0 0,10.7 12.41,10.7 18.19,0.02 18.19,0 	"/>
	<path class="st0" d="M22.11,2.75c-0.84,0-1.78,0.47-2.23,1.22h-0.03V0H18.2l-0.01,0.02v10.7h1.57V9.65h0.03
		c0.49,1.02,1.58,1.28,2.6,1.28c2.22,0,3.24-1.97,3.24-4.05C25.62,4.61,24.47,2.75,22.11,2.75z M21.89,9.58
		c-1.33,0-2.1-1.17-2.1-2.73c0-1.65,0.71-2.75,2.1-2.75c0,0,0,0,0,0h0h0c1.36,0,2.07,1.34,2.08,2.75C23.97,8.2,23.4,9.58,21.89,9.58
		z"/>
	<path class="st0" d="M26.29,6.92c0,2.28,1.29,4.01,3.64,4.01c1.93,0,3.13-1.11,3.44-3.12h-1.65c-0.16,1.11-0.83,1.77-1.78,1.77
		c-1.44,0-1.99-1.37-1.99-2.66c0-2.36,1.2-2.82,2.06-2.82c0.91,0,1.58,0.51,1.71,1.46l0,0h1.65c-0.16-1.91-1.64-2.81-3.38-2.81
		C27.53,2.75,26.29,4.58,26.29,6.92z"/>
</g>
</svg>
