<svg version="1.1" id="Capa_2_1_" xmlns="http://www.w3.org/2000/svg" x="0" y="0" viewBox="0 0 33.37 10.93" style="enable-background:new 0 0 33.37 10.93" xml:space="preserve"><style>.st0{fill:#fff}</style><path class="st0" d="M18.19 0H5.79L0 10.7h12.41L18.19.02z"/><path class="st0" d="M22.11 2.75c-.84 0-1.78.47-2.23 1.22h-.03V0H18.2l-.01.02v10.7h1.57V9.65h.03c.49 1.02 1.58 1.28 2.6 1.28 2.22 0 3.24-1.97 3.24-4.05-.01-2.27-1.16-4.13-3.52-4.13zm-.22 6.83c-1.33 0-2.1-1.17-2.1-2.73 0-1.65.71-2.75 2.1-2.75 1.36 0 2.07 1.34 2.08 2.75 0 1.35-.57 2.73-2.08 2.73zm4.4-2.66c0 2.28 1.29 4.01 3.64 4.01 1.93 0 3.13-1.11 3.44-3.12h-1.65c-.16 1.11-.83 1.77-1.78 1.77-1.44 0-1.99-1.37-1.99-2.66 0-2.36 1.2-2.82 2.06-2.82.91 0 1.58.51 1.71 1.46h1.65c-.16-1.91-1.64-2.81-3.38-2.81-2.46 0-3.7 1.83-3.7 4.17z"/></svg>
