<svg version="1.1" id="Capa_2" xmlns="http://www.w3.org/2000/svg" x="0" y="0" viewBox="0 0 334 37.36" style="enable-background:new 0 0 334 37.36" xml:space="preserve"><style>.st1{fill:#fff}</style><path class="st1" d="m180.32 30.31-4.56 6.86c-.08.12-.22.19-.36.19h-28.17a.43.43 0 0 1-.36-.67l4.24-6.38h29.21z"/><path class="st1" d="m141.79 12.99 9.32 17.32 4.55-6.83c.09-.13.1-.3.02-.44L146.7 6.35a.427.427 0 0 0-.74-.03l-4.15 6.23c-.08.13-.09.3-.02.44zm14.61 0 9.26 17.22c.02.04.09.05.11.01l4.49-6.74c.09-.13.1-.3.02-.44l-8.97-16.68a.427.427 0 0 0-.74-.03l-4.15 6.23c-.09.12-.1.29-.02.43zm14.6 0 9.32 17.32 4.55-6.83c.09-.13.1-.3.02-.44l-8.97-16.68a.427.427 0 0 0-.74-.03l-4.15 6.23c-.1.12-.11.29-.03.43zm-19.99-8.27c.26-.38.57-.72.9-1.05.32-.33.67-.64 1.04-.92.73-.58 1.52-1.08 2.37-1.49.85-.41 1.75-.73 2.67-.95.92-.21 1.88-.31 2.84-.31.48 0 .96.04 1.43.08.47.08.95.14 1.41.26.47.1.92.26 1.37.41l.66.27.33.14.32.16c1.68.84 3.17 2 4.34 3.4-1.63-.84-3.22-1.61-4.86-2.15l-.31-.1-.31-.08-.62-.18c-.42-.08-.83-.2-1.25-.26-.83-.15-1.67-.23-2.51-.22-1.68-.01-3.36.27-5 .79-.82.26-1.63.58-2.43.95-.82.36-1.61.78-2.39 1.25z"/><path d="M3.5 18.81v1.9h4.3v3.15H3.5v1.9h7.64v3.15H0V15.66h11.13v3.15H3.5zm26.36 3.4v.16c0 1.92-.63 3.49-1.9 4.71-1.27 1.22-2.9 1.83-4.91 1.83H18.4V15.66h4.66c2.01 0 3.65.61 4.91 1.83 1.26 1.23 1.89 2.8 1.89 4.72zm-7.97 3.56h1.16c.97 0 1.76-.32 2.36-.95.6-.64.9-1.45.9-2.44v-.16c0-.99-.3-1.81-.9-2.44-.6-.63-1.39-.95-2.36-.95h-1.16v6.94zm27.23-10.11v7.94c0 1.62-.54 2.96-1.63 4.01-1.09 1.05-2.59 1.57-4.51 1.57s-3.42-.52-4.51-1.57c-1.08-1.05-1.62-2.38-1.62-4.01v-7.94h3.46V23c0 .84.24 1.53.73 2.06.49.54 1.14.8 1.95.8.82 0 1.47-.27 1.95-.8.48-.54.72-1.22.72-2.06l-.03-7.34h3.49zM64.8 26.78h-5.5l-.78 2.14h-3.56l4.94-13.25h4.31l4.94 13.25H65.6l-.8-2.14zm-4.39-3.15h3.26l-1.62-4.99-1.64 4.99zm27.28-3.77c0 .76-.17 1.46-.51 2.09-.34.63-.82 1.12-1.44 1.47l1.92 5.5h-3.71l-1.62-4.95h-3.08v4.95h-3.5V15.66h7.84c1.22 0 2.22.41 2.97 1.22.76.81 1.13 1.81 1.13 2.98zm-8.44.97h4.22c.31.01.56-.07.75-.25.19-.18.29-.42.29-.73s-.1-.56-.3-.75c-.2-.19-.45-.29-.74-.29h-4.22v2.02zm27.4 1.38v.16c0 1.92-.63 3.49-1.9 4.71-1.27 1.22-2.9 1.83-4.91 1.83h-4.66V15.66h4.66c2.01 0 3.65.61 4.91 1.83 1.26 1.23 1.9 2.8 1.9 4.72zm-7.97 3.56h1.16c.97 0 1.76-.32 2.36-.95.6-.64.9-1.45.9-2.44v-.16c0-.99-.3-1.81-.9-2.44-.6-.63-1.39-.95-2.36-.95h-1.16v6.94zm21.56 3.43c-2.01 0-3.68-.66-5.01-1.99-1.33-1.32-2-2.96-2-4.92s.67-3.59 2-4.92 3-1.99 5.01-1.99c2.02 0 3.7.66 5.03 1.99 1.33 1.32 2 2.96 2 4.92s-.67 3.59-2 4.92-3.01 1.99-5.03 1.99zm-2.44-4.37c.67.7 1.48 1.05 2.44 1.05s1.78-.35 2.45-1.05c.67-.7 1.01-1.55 1.01-2.54 0-.98-.34-1.83-1.01-2.53-.67-.71-1.49-1.06-2.45-1.06s-1.78.35-2.44 1.04c-.67.7-1 1.55-1 2.55-.01 1 .33 1.84 1 2.54zm97.08-9.17v13.25h-3.5v-5.05h-4.92v5.05h-3.5V15.66h3.5v5.05h4.92v-5.05h3.5zm11.51 0v13.25h-3.5V15.66h3.5zm20.59 0v13.25h-3.01l-5.38-6.73-.68-1.04v7.77h-3.5V15.66h2.98l5.57 7.14.53.83v-7.97h3.49zm14.27 10.19c.95 0 1.76-.36 2.44-1.09l2.58 2.3c-.63.66-1.38 1.18-2.24 1.56-.87.38-1.79.57-2.76.57-1.95 0-3.61-.67-4.96-2.01-1.35-1.34-2.03-2.97-2.03-4.89s.68-3.55 2.03-4.89c1.35-1.34 3.01-2.01 4.96-2.01.97 0 1.89.19 2.76.57.87.38 1.61.9 2.24 1.56l-2.6 2.29c-.66-.72-1.47-1.08-2.42-1.08-.98 0-1.8.34-2.44 1.03-.65.69-.97 1.53-.97 2.53 0 1 .32 1.85.97 2.53.65.69 1.46 1.03 2.44 1.03zm20.63.93h-5.5l-.78 2.14h-3.56l4.94-13.25h4.31l4.94 13.25h-3.55l-.8-2.14zm-4.39-3.15h3.26l-1.62-4.99-1.64 4.99zm15.34-7.97h7.84c1.22 0 2.22.41 2.97 1.22.76.81 1.13 1.8 1.13 2.97 0 1.16-.38 2.14-1.13 2.94-.76.8-1.75 1.2-2.97 1.2l-4.34-.02v4.94h-3.5V15.66zm3.5 5.17h4.22c.31.01.56-.07.75-.25.19-.18.29-.42.29-.73s-.1-.56-.3-.75c-.2-.19-.45-.29-.74-.29h-4.22v2.02zm18.52-5.17v13.25h-3.5V15.66h3.5zm11.51 3.15v1.91h4.31v3.15h-4.31v1.91H334v3.15h-11.14V15.66H334v3.15h-7.64zm.58-5.37h2.62l1.84-3.78h-2.61z"/></svg>
