<?xml version="1.0" encoding="utf-8"?>
<!-- Generator: Adobe Illustrator 24.1.0, SVG Export Plug-In . SVG Version: 6.00 Build 0)  -->
<svg version="1.1" id="Capa_2" xmlns="http://www.w3.org/2000/svg" xmlns:xlink="http://www.w3.org/1999/xlink" x="0px" y="0px"
	 viewBox="0 0 334 37.36" style="enable-background:new 0 0 334 37.36;" xml:space="preserve">
<style type="text/css">
	.st0{fill:#545454;}
	.st1{fill:#FFFFFF;}
	.st2{fill:none;stroke:#FFFFFF;stroke-width:0.75;stroke-miterlimit:10;}
	.st3{fill:none;stroke:#000000;stroke-width:2.001;stroke-miterlimit:10;}
	.st4{fill:none;stroke:#000000;stroke-miterlimit:10;}
</style>
<g>
	<g>
		<g>
			<g>
				<path class="st1" d="M180.32,30.31l-4.56,6.86c-0.08,0.12-0.22,0.19-0.36,0.19h-28.17c-0.35,0-0.55-0.38-0.36-0.67l4.24-6.38
					H180.32z"/>
			</g>
			<g>
				<path class="st1" d="M141.79,12.99l9.32,17.32l4.55-6.83c0.09-0.13,0.1-0.3,0.02-0.44L146.7,6.35
					c-0.15-0.29-0.56-0.31-0.74-0.03l-4.15,6.23C141.73,12.68,141.72,12.85,141.79,12.99z"/>
			</g>
			<g>
				<path class="st1" d="M156.4,12.99l9.26,17.22c0.02,0.04,0.09,0.05,0.11,0.01l4.49-6.74c0.09-0.13,0.1-0.3,0.02-0.44l-8.97-16.68
					c-0.15-0.29-0.56-0.31-0.74-0.03l-4.15,6.23C156.33,12.68,156.32,12.85,156.4,12.99z"/>
			</g>
			<g>
				<path class="st1" d="M171,12.99l9.32,17.32l4.55-6.83c0.09-0.13,0.1-0.3,0.02-0.44l-8.97-16.68c-0.15-0.29-0.56-0.31-0.74-0.03
					l-4.15,6.23C170.93,12.68,170.92,12.85,171,12.99z"/>
			</g>
			<g>
				<path class="st1" d="M151.01,4.72c0.26-0.38,0.57-0.72,0.9-1.05c0.32-0.33,0.67-0.64,1.04-0.92c0.73-0.58,1.52-1.08,2.37-1.49
					c0.85-0.41,1.75-0.73,2.67-0.95C158.91,0.1,159.87,0,160.83,0c0.48,0,0.96,0.04,1.43,0.08c0.47,0.08,0.95,0.14,1.41,0.26
					c0.47,0.1,0.92,0.26,1.37,0.41c0.22,0.09,0.44,0.18,0.66,0.27l0.33,0.14l0.32,0.16c1.68,0.84,3.17,2,4.34,3.4
					c-1.63-0.84-3.22-1.61-4.86-2.15l-0.31-0.1l-0.31-0.08l-0.62-0.18c-0.42-0.08-0.83-0.2-1.25-0.26
					c-0.83-0.15-1.67-0.23-2.51-0.22c-1.68-0.01-3.36,0.27-5,0.79c-0.82,0.26-1.63,0.58-2.43,0.95
					C152.58,3.83,151.79,4.25,151.01,4.72z"/>
			</g>
		</g>
	</g>
	<g>
		<g>
			<path d="M3.5,18.81v1.9H7.8v3.15H3.5v1.9h7.64v3.15H0V15.66h11.13v3.15H3.5z"/>
			<path d="M29.86,22.21v0.08v0.08c0,1.92-0.63,3.49-1.9,4.71c-1.27,1.22-2.9,1.83-4.91,1.83H18.4V15.66h4.66
				c2.01,0,3.65,0.61,4.91,1.83C29.23,18.72,29.86,20.29,29.86,22.21z M21.89,25.77h1.16c0.97,0,1.76-0.32,2.36-0.95
				c0.6-0.64,0.9-1.45,0.9-2.44v-0.08v-0.08c0-0.99-0.3-1.81-0.9-2.44c-0.6-0.63-1.39-0.95-2.36-0.95h-1.16V25.77z"/>
			<path d="M49.12,15.66v7.94c0,1.62-0.54,2.96-1.63,4.01c-1.09,1.05-2.59,1.57-4.51,1.57c-1.92,0-3.42-0.52-4.51-1.57
				c-1.08-1.05-1.62-2.38-1.62-4.01v-7.94h3.46V23c0,0.84,0.24,1.53,0.73,2.06c0.49,0.54,1.14,0.8,1.95,0.8
				c0.82,0,1.47-0.27,1.95-0.8c0.48-0.54,0.72-1.22,0.72-2.06l-0.03-7.34H49.12z"/>
			<path d="M64.8,26.78h-5.5l-0.78,2.14h-3.56l4.94-13.25h4.31l4.94,13.25h-3.55L64.8,26.78z M60.41,23.63h3.26l-1.62-4.99
				L60.41,23.63z"/>
			<path d="M87.69,19.86c0,0.76-0.17,1.46-0.51,2.09c-0.34,0.63-0.82,1.12-1.44,1.47l1.92,5.5h-3.71l-1.62-4.95h-3.08v4.95h-3.5
				V15.66h7.84c1.22,0,2.22,0.41,2.97,1.22C87.32,17.69,87.69,18.69,87.69,19.86z M79.25,20.83h4.22c0.31,0.01,0.56-0.07,0.75-0.25
				c0.19-0.18,0.29-0.42,0.29-0.73s-0.1-0.56-0.3-0.75c-0.2-0.19-0.45-0.29-0.74-0.29h-4.22V20.83z"/>
			<path d="M106.65,22.21v0.08v0.08c0,1.92-0.63,3.49-1.9,4.71c-1.27,1.22-2.9,1.83-4.91,1.83h-4.66V15.66h4.66
				c2.01,0,3.65,0.61,4.91,1.83C106.01,18.72,106.65,20.29,106.65,22.21z M98.68,25.77h1.16c0.97,0,1.76-0.32,2.36-0.95
				c0.6-0.64,0.9-1.45,0.9-2.44v-0.08v-0.08c0-0.99-0.3-1.81-0.9-2.44c-0.6-0.63-1.39-0.95-2.36-0.95h-1.16V25.77z"/>
			<path d="M120.24,29.2c-2.01,0-3.68-0.66-5.01-1.99c-1.33-1.32-2-2.96-2-4.92s0.67-3.59,2-4.92c1.33-1.33,3-1.99,5.01-1.99
				c2.02,0,3.7,0.66,5.03,1.99c1.33,1.32,2,2.96,2,4.92s-0.67,3.59-2,4.92C123.94,28.54,122.26,29.2,120.24,29.2z M117.8,24.83
				c0.67,0.7,1.48,1.05,2.44,1.05s1.78-0.35,2.45-1.05c0.67-0.7,1.01-1.55,1.01-2.54c0-0.98-0.34-1.83-1.01-2.53
				c-0.67-0.71-1.49-1.06-2.45-1.06s-1.78,0.35-2.44,1.04c-0.67,0.7-1,1.55-1,2.55C116.79,23.29,117.13,24.13,117.8,24.83z"/>
			<path d="M214.88,15.66v13.25h-3.5v-5.05h-4.92v5.05h-3.5V15.66h3.5v5.05h4.92v-5.05H214.88z"/>
			<path d="M226.39,15.66v13.25h-3.5V15.66H226.39z"/>
			<path d="M246.98,15.66v13.25h-3.01l-5.38-6.73l-0.68-1.04v7.77h-3.5V15.66h2.98l5.57,7.14l0.53,0.83v-7.97H246.98z"/>
			<path d="M261.25,25.85c0.95,0,1.76-0.36,2.44-1.09l2.58,2.3c-0.63,0.66-1.38,1.18-2.24,1.56c-0.87,0.38-1.79,0.57-2.76,0.57
				c-1.95,0-3.61-0.67-4.96-2.01c-1.35-1.34-2.03-2.97-2.03-4.89s0.68-3.55,2.03-4.89c1.35-1.34,3.01-2.01,4.96-2.01
				c0.97,0,1.89,0.19,2.76,0.57c0.87,0.38,1.61,0.9,2.24,1.56l-2.6,2.29c-0.66-0.72-1.47-1.08-2.42-1.08c-0.98,0-1.8,0.34-2.44,1.03
				c-0.65,0.69-0.97,1.53-0.97,2.53c0,1,0.32,1.85,0.97,2.53C259.46,25.51,260.27,25.85,261.25,25.85z"/>
			<path d="M281.88,26.78h-5.5l-0.78,2.14h-3.56l4.94-13.25h4.31l4.94,13.25h-3.55L281.88,26.78z M277.49,23.63h3.26l-1.62-4.99
				L277.49,23.63z"/>
			<path d="M292.83,15.66h7.84c1.22,0,2.22,0.41,2.97,1.22c0.76,0.81,1.13,1.8,1.13,2.97c0,1.16-0.38,2.14-1.13,2.94
				c-0.76,0.8-1.75,1.2-2.97,1.2l-4.34-0.02v4.94h-3.5V15.66z M296.33,20.83h4.22c0.31,0.01,0.56-0.07,0.75-0.25
				c0.19-0.18,0.29-0.42,0.29-0.73s-0.1-0.56-0.3-0.75c-0.2-0.19-0.45-0.29-0.74-0.29h-4.22V20.83z"/>
			<path d="M314.85,15.66v13.25h-3.5V15.66H314.85z"/>
		</g>
		<path d="M326.36,18.81v1.91h4.31v3.15h-4.31v1.91H334v3.15h-11.14V15.66H334v3.15H326.36z"/>
		<polygon points="326.94,13.44 329.56,13.44 331.4,9.66 328.79,9.66 		"/>
	</g>
</g>
</svg>
