<svg xmlns="http://www.w3.org/2000/svg" viewBox="0 0 330.24 229.43"><defs><style>.cls-1{fill:#fff;}</style></defs><g id="Capa_2" data-name="Capa 2"><g id="ARTE"><path class="cls-1" d="M143.08,224.62C52.85,206.53-10.66,142.5,1.49,81.9S96.94-13.29,187.16,4.81,340.9,86.93,328.75,147.53,233.3,242.72,143.08,224.62ZM186.74,6.93C97.68-10.94,15.53,22.89,3.61,82.32S54.44,204.64,143.5,222.5s171.21-16,183.13-75.4S275.79,24.79,186.74,6.93Z"/><path class="cls-1" d="M62.9,55.2l-1.56,1.11-8.48-12,2,7.21-1.53,1.09-6.16-4.23,8.48,12L54,61.5l-9.9-14,2.11-1.49,6.84,4.7-2.19-8L53,41.26Z"/><path class="cls-1" d="M73.8,43.56A6.48,6.48,0,0,1,74.62,48a4.63,4.63,0,0,1-2.7,2.84Q67.47,53,65,47.91L59.84,37.33l1.79-.86L66.7,46.88c1.19,2.45,2.68,3.25,4.46,2.38a2.52,2.52,0,0,0,1.54-1.83A5.6,5.6,0,0,0,72,44.29L66.89,33.9,68.67,33Z"/><path class="cls-1" d="M84.89,29.09a8.89,8.89,0,0,0-2.91.43A4.12,4.12,0,0,0,79.81,31a2.35,2.35,0,0,0-.29,2.22c.33,1,1.43,1.57,3.29,1.77q2.07.24,2.76.36a6.5,6.5,0,0,1,1.47.49,4.81,4.81,0,0,1,1.41,1,4.15,4.15,0,0,1,.93,1.6,4.71,4.71,0,0,1-.36,4.2A6.06,6.06,0,0,1,85.7,45.2a8.28,8.28,0,0,1-3.94.4l-.15-1.76a8.52,8.52,0,0,0,3.5-.23,4,4,0,0,0,2.31-1.7,3,3,0,0,0,.2-2.62,2.88,2.88,0,0,0-1.24-1.62,7.19,7.19,0,0,0-2.85-.75c-1.34-.15-2.21-.26-2.62-.35a5,5,0,0,1-1.29-.47,4,4,0,0,1-1.17-.9,3.82,3.82,0,0,1-.74-1.31,3.93,3.93,0,0,1,.4-3.62,6.13,6.13,0,0,1,3.29-2.35,11.58,11.58,0,0,1,3.38-.58Z"/><path class="cls-1" d="M105.1,39.74l-7.58,1.64-.37-1.69,2.88-.63L97.15,25.74l-2.88.62-.36-1.69L101.49,23l.37,1.69-2.77.6L102,38.64l2.77-.6Z"/><path class="cls-1" d="M122.24,36.27a7.92,7.92,0,0,1-4.47,1.93,5.94,5.94,0,0,1-5.27-1.67c-1.32-1.38-2.15-3.49-2.48-6.35a11.09,11.09,0,0,1,.89-6.67,5.87,5.87,0,0,1,4.79-2.94,10.21,10.21,0,0,1,2.47,0,6.33,6.33,0,0,1,2,.6l-.47,1.63a7.42,7.42,0,0,0-3.83-.52,3.91,3.91,0,0,0-3.29,2.11q-.95,1.83-.51,5.52.83,7.06,5.46,6.53a8,8,0,0,0,3.88-1.68Z"/><path class="cls-1" d="M154,36.22a8,8,0,0,1-4.72,1.15,5.93,5.93,0,0,1-4.93-2.53q-1.61-2.36-1.39-6.67a11.16,11.16,0,0,1,2-6.43,5.84,5.84,0,0,1,5.22-2.09,9.71,9.71,0,0,1,2.43.44,6,6,0,0,1,1.9.93l-.73,1.53a7.54,7.54,0,0,0-3.69-1.16,4,4,0,0,0-3.6,1.53,10,10,0,0,0-1.42,5.36c-.24,4.75,1.19,7.19,4.3,7.35a7.92,7.92,0,0,0,4.1-1Z"/><path class="cls-1" d="M166.39,21.12a4.94,4.94,0,0,1,4.06,2.81c.81,1.63,1,3.88.66,6.74A11.9,11.9,0,0,1,168.79,37a5.34,5.34,0,0,1-8.68-1.09,12,12,0,0,1-.67-6.74,12.11,12.11,0,0,1,2.32-6.36A4.93,4.93,0,0,1,166.39,21.12Zm-2,15.88q3.75.48,4.65-6.59t-2.85-7.55a3,3,0,0,0-3,1.47,11.58,11.58,0,0,0-1.63,5.13,11.72,11.72,0,0,0,.28,5.38A3,3,0,0,0,164.37,37Z"/><path class="cls-1" d="M185.3,42.12l-1.87-.4,3-14.34-4,6.33-1.84-.39-1.07-7.39-3,14.34-1.88-.4,3.54-16.72,2.52.53,1.19,8.21,4.4-7,2.52.53Z"/><path class="cls-1" d="M195.74,27l4.18,1.15a6,6,0,0,1,3.47,2.24,4.21,4.21,0,0,1,.52,3.67,4.42,4.42,0,0,1-2.35,3,5.64,5.64,0,0,1-4.06.23l-2.35-.65L193.1,44l-1.91-.53ZM195.61,35l2.08.57q3.38.93,4.15-1.89a2.8,2.8,0,0,0-.33-2.37,3.62,3.62,0,0,0-2.14-1.46l-2.17-.6Z"/><path class="cls-1" d="M216.35,33a4.94,4.94,0,0,1,3.35,3.62,12,12,0,0,1-.82,6.73q-1.45,4.06-3.64,5.69A5.35,5.35,0,0,1,207,46.13c-.44-1.77-.16-4,.81-6.72a12,12,0,0,1,3.65-5.7A4.94,4.94,0,0,1,216.35,33ZM210.93,48.1q3.56,1.29,6-5.42t-1.14-8a3,3,0,0,0-3.27.78,11.83,11.83,0,0,0-2.7,4.66,11.85,11.85,0,0,0-.89,5.31A3,3,0,0,0,210.93,48.1Z"/><path class="cls-1" d="M234.74,43a8.87,8.87,0,0,0-2.42-1.66,4.13,4.13,0,0,0-2.6-.4A2.32,2.32,0,0,0,228,42.41q-.64,1.41,1.2,3.54c.91,1,1.5,1.76,1.77,2.14a6,6,0,0,1,.75,1.36,4.59,4.59,0,0,1,.34,1.69,4,4,0,0,1-.4,1.81,4.7,4.7,0,0,1-3.12,2.83,6.1,6.1,0,0,1-4.17-.38A8.2,8.2,0,0,1,221.22,53l1.08-1.39A8.39,8.39,0,0,0,225,53.83a4,4,0,0,0,2.84.33,3,3,0,0,0,1.93-1.78,2.89,2.89,0,0,0,.2-2,7.09,7.09,0,0,0-1.58-2.49c-.88-1-1.44-1.71-1.69-2a5.16,5.16,0,0,1-.62-1.22,3.7,3.7,0,0,1-.24-1.46,3.5,3.5,0,0,1,.34-1.46A4,4,0,0,1,229,39.29a6.13,6.13,0,0,1,4,.52,11.16,11.16,0,0,1,2.88,1.88Z"/><path class="cls-1" d="M242.54,64.38l-6.77-3.81.85-1.51,2.57,1.44,6.68-11.87-2.56-1.45.85-1.51,6.76,3.81L250.07,51,247.6,49.6l-6.68,11.88,2.47,1.39Z"/><path class="cls-1" d="M266.53,61.74l-4.32-3-8.85,12.71-1.62-1.13,8.85-12.7-4.34-3,.92-1.32,10.29,7.16Z"/><path class="cls-1" d="M267.76,83l-5.85-5.11,1.14-1.3,2.22,1.94,9-10.27L272,66.32,273.16,65,279,70.12l-1.14,1.31-2.14-1.87-9,10.26,2.14,1.87Z"/><path class="cls-1" d="M289.08,80a4.92,4.92,0,0,1,1.19,4.79,12,12,0,0,1-4,5.5,12,12,0,0,1-5.94,3.22,5.34,5.34,0,0,1-5.79-6.56,11.89,11.89,0,0,1,3.95-5.49,12,12,0,0,1,6-3.24A4.9,4.9,0,0,1,289.08,80Zm-12,10.57q2.49,2.84,7.84-1.86t2.86-7.56a3,3,0,0,0-3.24-.88,11.56,11.56,0,0,0-4.6,2.77,11.69,11.69,0,0,0-3.35,4.22A3,3,0,0,0,277.07,90.56Z"/><path class="cls-1" d="M288,108.27l-1.17-1.87,8.21-12.35-11.45,7.14-1.06-1.68,14.51-9.05,1.17,1.89-8.09,12.29,11.35-7.07,1,1.65Z"/><path class="cls-1" d="M29.36,136.43A7.26,7.26,0,0,1,26,133.29a5.63,5.63,0,0,1-.41-5.19q1.1-2.43,4.69-4.39a10.43,10.43,0,0,1,6.15-1.57,5.48,5.48,0,0,1,4.23,3.16,9.21,9.21,0,0,1,.84,2.17,5.74,5.74,0,0,1,.19,2l-1.59.17a7,7,0,0,0-.88-3.53,3.7,3.7,0,0,0-3-2.12,9.27,9.27,0,0,0-5,1.48q-5.89,3.21-3.79,7.06a3.88,3.88,0,0,0,1.81,1.86l3.48-1.9-1.39-2.54,1.42-.77,2.29,4.18Z"/><path class="cls-1" d="M38.63,151l-1.19-1.56,3.38-4.84-3.22-4.18-5.56,2-1.18-1.53,16-5.64L48.18,137Zm3.15-7.81,4-5.73-6.56,2.39Z"/><path class="cls-1" d="M48.79,161.49l-1.27-1.28,9.8-9.7-6.39,2.92-1.25-1.26,3-6.36-9.8,9.7-1.27-1.28L53,142.92l1.7,1.72-3.31,7.07,7.09-3.25,1.71,1.72Z"/><path class="cls-1" d="M60.05,171l-6.49-5.32,10.18-12.44,6.44,5.27-1,1.27-5-4.1L61,159.58l4.8,3.93-1,1.26L60,160.84,56,165.64l5,4.14Z"/><path class="cls-1" d="M80,167.61a8.37,8.37,0,0,0-2-1.93,4,4,0,0,0-2.34-.78,2.23,2.23,0,0,0-1.83,1c-.54.81-.36,2,.56,3.48.67,1.11,1.11,1.87,1.31,2.26a5.44,5.44,0,0,1,.47,1.38,4.45,4.45,0,0,1,.06,1.63,4,4,0,0,1-.66,1.6,4.48,4.48,0,0,1-3.35,2.14,5.72,5.72,0,0,1-3.81-1,7.87,7.87,0,0,1-2.55-2.71l1.22-1.12a7.92,7.92,0,0,0,2.19,2.48,3.81,3.81,0,0,0,2.58.76,2.85,2.85,0,0,0,2.07-1.35,2.71,2.71,0,0,0,.5-1.85,6.81,6.81,0,0,0-1.06-2.56c-.66-1.09-1.07-1.81-1.24-2.16a4.56,4.56,0,0,1-.39-1.23,4.06,4.06,0,0,1,0-1.39,3.45,3.45,0,0,1,.56-1.3,3.71,3.71,0,0,1,2.93-1.77,5.73,5.73,0,0,1,3.63,1.11,10.5,10.5,0,0,1,2.37,2.2Z"/><path class="cls-1" d="M90,187.1,85,178.55l.65-1.2,9.91-.41-.78,1.44-8,.42,4.08,6.83Z"/><path class="cls-1" d="M107.46,197.72,105.8,197l5.39-12.69-4.81,5.13-1.63-.69.35-7-5.39,12.68-1.66-.7,6.29-14.8,2.24,1-.39,7.8,5.32-5.7,2.24.95Z"/><path class="cls-1" d="M122.23,185.66a4.64,4.64,0,0,1,3.19,3.36,14.28,14.28,0,0,1-4,11.74,5,5,0,0,1-7.78-2.68,11.27,11.27,0,0,1,.68-6.33,11.44,11.44,0,0,1,3.36-5.41A4.63,4.63,0,0,1,122.23,185.66Zm-4.91,14.23q3.36,1.16,5.55-5.17t-1.18-7.51a2.86,2.86,0,0,0-3.06.78,14.29,14.29,0,0,0-3.25,9.41A2.85,2.85,0,0,0,117.32,199.89Z"/><path class="cls-1" d="M141.81,191.77l-9.26,14.15-2.17-.59-.87-16.89,1.89.51.63,14.59,7.91-12.28Z"/><path class="cls-1" d="M149.94,209.81l-7.18-1.36.3-1.61,2.72.52,2.39-12.59-2.72-.52.3-1.6,7.18,1.36-.3,1.6-2.63-.49-2.38,12.59,2.62.5Z"/><path class="cls-1" d="M165.6,212.16l-8.32-1.09,2.09-15.94,8.26,1.08-.21,1.62L161,197l-.65,4.93,6.16.81-.21,1.62-6.16-.81-.81,6.16,6.48.85Z"/><path class="cls-1" d="M180.81,199a8.21,8.21,0,0,0-2.68-.66,4,4,0,0,0-2.42.51,2.21,2.21,0,0,0-1,1.84c-.06,1,.68,1.87,2.23,2.71,1.15.62,1.91,1.05,2.28,1.28a6.66,6.66,0,0,1,1.12,1,4.66,4.66,0,0,1,.86,1.38,3.85,3.85,0,0,1,.25,1.72,4.44,4.44,0,0,1-1.8,3.53,5.68,5.68,0,0,1-3.8,1.06,7.59,7.59,0,0,1-3.57-1l.48-1.58a8.06,8.06,0,0,0,3.15,1,3.85,3.85,0,0,0,2.61-.67,2.84,2.84,0,0,0,1.1-2.21,2.73,2.73,0,0,0-.52-1.85,6.62,6.62,0,0,0-2.21-1.66c-1.12-.61-1.84-1-2.17-1.23a4.65,4.65,0,0,1-.95-.86,3.93,3.93,0,0,1-.7-1.2,3.4,3.4,0,0,1-.19-1.4,3.74,3.74,0,0,1,1.63-3,5.77,5.77,0,0,1,3.7-.89,10.85,10.85,0,0,1,3.15.69Z"/><path class="cls-1" d="M199.31,210.9,190.67,206l0-1.37,8.4-5.27,0,1.64-6.73,4.33,6.93,3.9Z"/><path class="cls-1" d="M216.23,197.48a8.23,8.23,0,0,0-2.76-.16,3.9,3.9,0,0,0-2.29.94,2.19,2.19,0,0,0-.68,2c.11,1,1,1.72,2.69,2.26,1.24.4,2.06.69,2.47.86a5.36,5.36,0,0,1,1.26.73,4.17,4.17,0,0,1,1.1,1.19,3.81,3.81,0,0,1,.56,1.65,4.43,4.43,0,0,1-1.13,3.8,5.74,5.74,0,0,1-3.54,1.73,7.75,7.75,0,0,1-3.71-.39l.19-1.64a7.89,7.89,0,0,0,3.28.45,3.81,3.81,0,0,0,2.45-1.13,2.85,2.85,0,0,0,.68-2.37,2.69,2.69,0,0,0-.84-1.73,6.83,6.83,0,0,0-2.47-1.23c-1.21-.4-2-.67-2.35-.82a4.57,4.57,0,0,1-1.1-.68,3.79,3.79,0,0,1-.91-1.05,3.51,3.51,0,0,1-.43-1.35,3.69,3.69,0,0,1,1.05-3.25,5.74,5.74,0,0,1,3.48-1.55,11,11,0,0,1,3.23.12Z"/><path class="cls-1" d="M233.9,208.79l-8.23,1.67-3.2-15.75,8.16-1.66.33,1.6-6.33,1.28,1,4.88,6.08-1.23.33,1.59-6.09,1.24,1.24,6.09,6.39-1.3Z"/><path class="cls-1" d="M250.86,204l-2.24.68L242,199.08l-2,.6,2.1,7-1.79.54-4.63-15.4,4.36-1.31a5.41,5.41,0,0,1,3.78,0,3.79,3.79,0,0,1,2.16,2.58,3.93,3.93,0,0,1-.17,2.78,4.87,4.87,0,0,1-2.11,2.26Zm-11.31-5.92,2.26-.68a3.58,3.58,0,0,0,2.07-1.46,2.61,2.61,0,0,0,.3-2.21c-.52-1.71-1.82-2.26-3.92-1.63l-2.3.69Z"/><path class="cls-1" d="M262.75,199.25,256,202.07l-.63-1.5,2.55-1.07-5-11.82-2.55,1.07-.64-1.51,6.74-2.82.63,1.5-2.46,1,5,11.83,2.45-1Z"/><path class="cls-1" d="M277.35,191.51l-7.28,4.19-8-13.94,7.22-4.15.82,1.41-5.61,3.22,2.49,4.32,5.38-3.1.81,1.42L267.78,188l3.1,5.38,5.65-3.25Z"/><path class="cls-1" d="M280.63,171.31a8.54,8.54,0,0,0-2.43,1.33,3.94,3.94,0,0,0-1.43,2,2.2,2.2,0,0,0,.48,2.06q.92,1.13,3.48.48c1.26-.32,2.11-.51,2.54-.59a6.35,6.35,0,0,1,1.47,0,4.38,4.38,0,0,1,1.56.43,4,4,0,0,1,1.35,1.1,4.43,4.43,0,0,1,1.05,3.82,5.63,5.63,0,0,1-2.08,3.34,7.67,7.67,0,0,1-3.35,1.65l-.7-1.49a8,8,0,0,0,3-1.37,3.81,3.81,0,0,0,1.48-2.25,2.86,2.86,0,0,0-.68-2.37,2.69,2.69,0,0,0-1.63-1,6.59,6.59,0,0,0-2.76.27c-1.23.31-2,.49-2.42.56a4.64,4.64,0,0,1-1.29,0,3.52,3.52,0,0,1-2.41-1.32,3.71,3.71,0,0,1-.83-3.32,5.69,5.69,0,0,1,2.12-3.15,11.07,11.07,0,0,1,2.79-1.62Z"/><path class="cls-1" d="M189.19,134.35l-10.36,10.37a.77.77,0,0,1-.69.21L129,135.07a.77.77,0,0,1-.4-1.3l9.64-9.64Z"/><path class="cls-1" d="M128,90.66l10.2,33.47,10.32-10.33a.78.78,0,0,0,.19-.77L138.93,80.8a.76.76,0,0,0-1.28-.32l-9.41,9.42A.75.75,0,0,0,128,90.66Z"/><path class="cls-1" d="M153.52,95.77l10.14,33.28a.11.11,0,0,0,.19,0L174,118.91a.78.78,0,0,0,.19-.77L164.41,85.9a.77.77,0,0,0-1.28-.32L153.71,95A.76.76,0,0,0,153.52,95.77Z"/><path class="cls-1" d="M179,100.88l10.19,33.47L199.51,124a.76.76,0,0,0,.19-.77L189.88,91a.77.77,0,0,0-1.28-.32l-9.41,9.43A.74.74,0,0,0,179,100.88Z"/><path class="cls-1" d="M147,79.45a14.11,14.11,0,0,1,1.93-1.51,20.63,20.63,0,0,1,2.14-1.25,22.85,22.85,0,0,1,4.65-1.76,23.2,23.2,0,0,1,5-.72,22.15,22.15,0,0,1,5.07.45c.84.16,1.66.41,2.48.64s1.6.58,2.36,1a22.81,22.81,0,0,1,2.24,1.19l1.05.69.52.36.5.38a24,24,0,0,1,6.38,7.46,59.05,59.05,0,0,0-7.73-5.45l-.49-.29-.52-.25-1-.53c-.7-.29-1.37-.64-2.09-.88a23.52,23.52,0,0,0-4.3-1.27,28.29,28.29,0,0,0-9-.37,36.61,36.61,0,0,0-4.58.8A45,45,0,0,0,147,79.45Z"/><path class="cls-1" d="M67.69,101.94l-8.75-1.75L62.3,83.43,71,85.17l-.34,1.69L63.9,85.51l-1,5.2L69.33,92,69,93.7l-6.47-1.3-1.3,6.48L68,100.24Z"/><path class="cls-1" d="M77.55,86.49l3.3.66a6.84,6.84,0,0,1,4.83,3.29A9.16,9.16,0,0,1,86.43,97a9,9,0,0,1-3.25,5.78,6.86,6.86,0,0,1-5.61,1.16l-3.38-.68Zm-1.07,15.45,1.38.27a4.61,4.61,0,0,0,4.13-1,9.54,9.54,0,0,0,2-9.81,4.64,4.64,0,0,0-3.41-2.54l-1.38-.28Z"/><path class="cls-1" d="M93.37,89.66l3.3.66a6.86,6.86,0,0,1,4.83,3.3,9.14,9.14,0,0,1,.75,6.54A9,9,0,0,1,99,105.94a6.83,6.83,0,0,1-5.6,1.16L90,106.42Zm-1.08,15.45,1.38.28a4.64,4.64,0,0,0,4.14-1,9.51,9.51,0,0,0,2-9.8A4.65,4.65,0,0,0,96.35,92L95,91.75Z"/><path class="cls-1" d="M227.89,124.51a4.78,4.78,0,0,1,2.32,2,4.13,4.13,0,0,1,.41,2.88,4.53,4.53,0,0,1-2.38,3.3,6.25,6.25,0,0,1-4.26.56l-4.76-1,3.36-16.76,4.64.93a6.14,6.14,0,0,1,3.58,1.83,3.64,3.64,0,0,1,.76,3.27,3.27,3.27,0,0,1-1.21,2,4.56,4.56,0,0,1-2.45.9Zm-4.7-1.89,2.28.46q3.57.72,4.09-1.83a2.13,2.13,0,0,0-.52-2,4.6,4.6,0,0,0-2.45-1.14l-2.41-.48ZM221.5,131l2.21.45a4.94,4.94,0,0,0,3.25-.27,3,3,0,0,0,1.62-2.18,3.1,3.1,0,0,0-.61-2.74,5.19,5.19,0,0,0-3.06-1.54l-2.06-.42Z"/><path class="cls-1" d="M244.34,137.37l-8.75-1.75L239,118.86l8.68,1.74-.34,1.69-6.73-1.35-1.05,5.2,6.48,1.29-.34,1.7-6.48-1.3-1.29,6.48,6.81,1.36Z"/><path class="cls-1" d="M262.34,141l-2-.41-.68-6.24-5.5-1.1-3.05,5.49-2-.41,8.84-15.66,2.34.47Zm-2.94-8.46-.81-7.38-3.58,6.5Z"/><path class="cls-1" d="M280.68,128.87l-5.16-1-3,15.18-1.93-.39,3-15.18-5.19-1,.31-1.58,12.3,2.47Z"/></g></g></svg>