<svg version="1.1" id="Capa_2" xmlns="http://www.w3.org/2000/svg" x="0" y="0" viewBox="0 0 14.45 14.45" style="enable-background:new 0 0 14.45 14.45" xml:space="preserve"><style>.st1{fill:#fff}.st2{fill:none;stroke:#fff;stroke-width:.75;stroke-miterlimit:10}.st3{stroke-width:2.001}.st3,.st4{fill:none;stroke:#000;stroke-miterlimit:10}</style><path d="M4.82 7.22c0-1.33 1.08-2.41 2.41-2.41s2.41 1.08 2.41 2.41-1.09 2.41-2.42 2.41-2.4-1.08-2.4-2.41m-1.31 0c0 2.05 1.66 3.71 3.71 3.71s3.71-1.66 3.71-3.71-1.66-3.71-3.71-3.71-3.71 1.67-3.71 3.71m6.7-3.85a.87.87 0 1 0 .87-.87.87.87 0 0 0-.87.87m-5.9 9.73c-.7-.03-1.09-.15-1.34-.25-.34-.13-.58-.29-.83-.54s-.41-.49-.54-.83c-.1-.25-.22-.64-.25-1.34-.04-.76-.05-.99-.05-2.92s.01-2.15.04-2.92c.03-.7.15-1.09.25-1.34.13-.34.29-.58.54-.83s.49-.41.83-.54c.25-.1.64-.22 1.34-.25.77-.03 1-.04 2.92-.04s2.16.01 2.92.04c.7.03 1.09.15 1.34.25.34.13.58.29.83.54s.41.49.54.83c.1.25.22.64.25 1.34.04.76.04.99.04 2.92s-.01 2.16-.04 2.92c-.03.7-.15 1.09-.25 1.34-.13.34-.29.58-.54.83-.25.25-.49.41-.83.54-.25.1-.64.22-1.34.25-.76.04-.99.04-2.92.04s-2.15 0-2.91-.04M4.25.04c-.77.04-1.3.16-1.76.34-.47.18-.88.43-1.28.83s-.65.8-.83 1.28c-.18.46-.3.99-.34 1.76C.01 5.02 0 5.26 0 7.22s.01 2.21.04 2.98c.04.77.16 1.29.34 1.75.18.47.43.88.83 1.28.4.4.8.65 1.28.83.46.18.98.3 1.75.34.77.04 1.02.04 2.98.04s2.21-.01 2.98-.04c.77-.04 1.29-.16 1.75-.34.47-.18.88-.43 1.28-.83.4-.4.65-.8.83-1.28.18-.46.3-.98.34-1.75.04-.77.04-1.02.04-2.98s-.01-2.21-.04-2.98c-.04-.77-.16-1.29-.34-1.75-.18-.47-.43-.88-.83-1.28-.4-.4-.8-.65-1.28-.83-.46-.18-.98-.3-1.75-.34C9.43.01 9.19 0 7.22 0s-2.2.01-2.97.04" style="fill:#545454"/></svg>
