<svg xmlns="http://www.w3.org/2000/svg" viewBox="0 0 1920 1070.71"><g data-name="Capa 2"><path style="fill:#fff" d="M0 0h1920v1070.71H0z"/><path d="m1005.28 488.5-12.16 18.29a1.17 1.17 0 0 1-1 .51H917a1.15 1.15 0 0 1-1-1.79l11.32-17Zm-102.74-46.19 24.84 46.19 12.13-18.23a1.14 1.14 0 0 0 0-1.18l-23.88-44.49a1.15 1.15 0 0 0-2-.09l-11.06 16.62a1.16 1.16 0 0 0-.03 1.18Zm38.95 0 24.7 45.93a.17.17 0 0 0 .3 0l12-18a1.16 1.16 0 0 0 0-1.18l-23.91-44.46a1.15 1.15 0 0 0-2-.09l-11.06 16.62a1.16 1.16 0 0 0-.03 1.18Zm38.95 0 24.84 46.19 12.13-18.23a1.16 1.16 0 0 0 .05-1.18l-23.93-44.49a1.15 1.15 0 0 0-2-.09l-11.06 16.62a1.14 1.14 0 0 0-.03 1.18Zm-53.33-22.06a22 22 0 0 1 2.39-2.8 30.8 30.8 0 0 1 2.77-2.46 34.54 34.54 0 0 1 13.46-6.49 33.83 33.83 0 0 1 7.59-.84 37.46 37.46 0 0 1 3.82.22c1.26.21 2.53.37 3.76.7s2.44.69 3.64 1.09l1.75.71.87.37.84.43a36.21 36.21 0 0 1 11.59 9.07 88.75 88.75 0 0 0-13-5.73l-.81-.28-.78-.24-1.65-.47c-1.11-.22-2.2-.54-3.32-.69a36.85 36.85 0 0 0-6.7-.6 42.58 42.58 0 0 0-13.33 2.14 53.1 53.1 0 0 0-6.49 2.53 61.34 61.34 0 0 0-6.4 3.34ZM711.37 557.5v3.5h7.93v5.8h-7.93v3.51h14.07v5.8h-20.51V551.7h20.51v5.8Zm48.63 6.26v.3a11.55 11.55 0 0 1-3.49 8.69 12.5 12.5 0 0 1-9.05 3.37h-8.58V551.7h8.58a12.54 12.54 0 0 1 9.05 3.37 11.55 11.55 0 0 1 3.49 8.69Zm-14.68 6.56h2.14a5.72 5.72 0 0 0 4.34-1.75 6.28 6.28 0 0 0 1.67-4.51v-.3a6.32 6.32 0 0 0-1.67-4.51 5.72 5.72 0 0 0-4.34-1.75h-2.14Zm50.13-18.62v14.62a9.84 9.84 0 0 1-3 7.39q-3 2.89-8.32 2.9t-8.3-2.9a9.83 9.83 0 0 1-3-7.39V551.7h6.38v13.52a5.4 5.4 0 0 0 1.34 3.8 5.08 5.08 0 0 0 7.19 0 5.48 5.48 0 0 0 1.33-3.8L789 551.7Zm28.88 20.48H814.2l-1.44 3.94h-6.56l9.09-24.42h7.94l9.1 24.42h-6.54Zm-8.09-5.8h6l-3-9.18Zm50.28-6.96a7.92 7.92 0 0 1-.94 3.85 6.89 6.89 0 0 1-2.66 2.72l3.54 10.13h-6.84l-3-9.13H851v9.13h-6.44V551.7H859a7.15 7.15 0 0 1 5.48 2.24 7.73 7.73 0 0 1 2.04 5.48ZM851 561.23h7.79a1.91 1.91 0 0 0 1.39-.46 1.77 1.77 0 0 0 .53-1.35 1.85 1.85 0 0 0-.55-1.39 1.91 1.91 0 0 0-1.37-.53H851Zm50.45 2.53v.3a11.56 11.56 0 0 1-3.5 8.69 12.47 12.47 0 0 1-9.05 3.37h-8.58V551.7h8.58a12.51 12.51 0 0 1 9.05 3.37 11.56 11.56 0 0 1 3.5 8.69Zm-14.68 6.56h2.13a5.75 5.75 0 0 0 4.35-1.75 6.28 6.28 0 0 0 1.67-4.51v-.3a6.32 6.32 0 0 0-1.67-4.51 5.75 5.75 0 0 0-4.35-1.75h-2.13Zm39.73 6.32a12.56 12.56 0 0 1-9.24-3.66 13 13 0 0 1 0-18.13 13.49 13.49 0 0 1 18.5 0 13 13 0 0 1 0 18.13 12.59 12.59 0 0 1-9.26 3.66Zm-4.51-8a6.23 6.23 0 0 0 9 0 6.79 6.79 0 0 0 0-9.36 6.22 6.22 0 0 0-9 0 6.91 6.91 0 0 0 0 9.39Zm73.58-16.94v24.42h-6.44v-9.31h-9.06v9.31h-6.44V551.7h6.44v9.3h9.06v-9.3Zm21.22 0v24.42h-6.44V551.7Zm37.95 0v24.42h-5.56l-9.92-12.39-1.25-1.92v14.31h-6.44V551.7h5.49l10.26 13.16 1 1.52V551.7Zm26.26 18.77a5.9 5.9 0 0 0 4.49-2l4.76 4.24a12.72 12.72 0 0 1-4.13 2.89 13 13 0 0 1-14.23-2.66 12.75 12.75 0 0 1 0-18 13 13 0 0 1 14.23-2.66 12.87 12.87 0 0 1 4.13 2.89l-4.79 4.21a5.85 5.85 0 0 0-4.46-2 5.93 5.93 0 0 0-4.5 1.89 7 7 0 0 0 0 9.34 5.93 5.93 0 0 0 4.5 1.86Zm38 1.71h-10.13l-1.44 3.94h-6.56l9.1-24.42h7.93l9.1 24.42h-6.53Zm-8.09-5.8h6l-3-9.18Zm28.32-14.68h14.44a7.18 7.18 0 0 1 5.48 2.24 7.78 7.78 0 0 1 2.09 5.48 7.6 7.6 0 0 1-2.09 5.42 7.2 7.2 0 0 1-5.48 2.22h-8v9.1h-6.44Zm6.44 9.53h7.78a1.91 1.91 0 0 0 1.39-.46 1.74 1.74 0 0 0 .54-1.35 1.88 1.88 0 0 0-.55-1.39 1.93 1.93 0 0 0-1.38-.53h-7.78Zm34.13-9.53v24.42h-6.44V551.7Zm21.2 5.8v3.5h7.94v5.8H1201v3.51h14.07v5.8h-20.51V551.7h20.51v5.8ZM833.77 662a5.55 5.55 0 0 1-3.35 1.11 4.3 4.3 0 0 1-3.65-1.64 7.75 7.75 0 0 1-1.25-4.77 8 8 0 0 1 1.21-4.73 4.21 4.21 0 0 1 3.69-1.69 7.17 7.17 0 0 1 1.77.23 4.4 4.4 0 0 1 1.41.6l-.48 1.13a5.33 5.33 0 0 0-2.7-.7 2.86 2.86 0 0 0-2.54 1.24 7.26 7.26 0 0 0-.83 3.92q0 5.15 3.37 5.14a3 3 0 0 0 1.92-.53v-3h-2.23V657h3.66Zm12.78.82H845l-1.37-4.33h-4l-1.38 4.33h-1.49l4-12.36h1.73Zm-3.29-5.58-1.62-5.11-1.64 5.11Zm14.19 5.58h-1.39v-10.59l-1.86 5.06h-1.36l-1.84-5.06v10.59h-1.38v-12.36h1.87l2.06 5.63 2.06-5.63h1.87Zm11.17 0h-6.46v-12.36h6.4v1.26h-5v3.82h4.77v1.25h-4.73v4.78h5Zm11.15-10.99a6.45 6.45 0 0 0-2.09-.37 3 3 0 0 0-1.83.51 1.68 1.68 0 0 0-.7 1.46c0 .74.61 1.4 1.85 2 .91.42 1.51.72 1.8.88a4.37 4.37 0 0 1 .9.67 3.48 3.48 0 0 1 .73 1 3 3 0 0 1 .28 1.31 3.43 3.43 0 0 1-1.21 2.8 4.41 4.41 0 0 1-2.86 1 6.05 6.05 0 0 1-2.8-.63l.3-1.24a6.06 6.06 0 0 0 2.46.64 3 3 0 0 0 2-.63 2.21 2.21 0 0 0 .74-1.75 2.08 2.08 0 0 0-.49-1.4 5.25 5.25 0 0 0-1.77-1.17c-.89-.4-1.46-.68-1.72-.83a3.85 3.85 0 0 1-.78-.62 2.94 2.94 0 0 1-.59-.89 2.64 2.64 0 0 1-.21-1.06 2.84 2.84 0 0 1 1.1-2.39 4.38 4.38 0 0 1 2.79-.86 8 8 0 0 1 2.46.38Zm24.23 9.11-6.58-3.94v-1l6.55-3.9v1.26l-5.25 3.21 5.25 3.12Zm24.47 1.88h-1.39v-10.59l-1.86 5.06h-1.36l-1.86-5.06v10.59h-1.39v-12.36h1.87l2.07 5.63 2.05-5.63h1.87Zm7.83-12.59a3.58 3.58 0 0 1 3.17 1.64 11 11 0 0 1 0 9.54 3.85 3.85 0 0 1-6.32 0 8.57 8.57 0 0 1-1.09-4.76 8.68 8.68 0 0 1 1.08-4.77 3.56 3.56 0 0 1 3.16-1.65Zm0 11.56c1.83 0 2.73-1.71 2.73-5.14s-.9-5.16-2.73-5.16a2.2 2.2 0 0 0-2 1.33 10.9 10.9 0 0 0 0 7.66 2.2 2.2 0 0 0 2 1.31Zm16.7-11.33-4 12.36h-1.73l-4-12.36h1.5l3.39 10.7 3.41-10.7Zm9.74 12.36h-5.61v-1.25h2.13v-9.85h-2.13v-1.26h5.61v1.26h-2v9.85h2Zm12.41 0h-6.45v-12.36h6.4v1.26h-5v3.82h4.77v1.25h-4.77v4.78h5Zm11.15-10.99a6.45 6.45 0 0 0-2.09-.37 3 3 0 0 0-1.82.51 1.69 1.69 0 0 0-.71 1.46c0 .74.62 1.4 1.85 2 .91.42 1.51.72 1.81.88a4.61 4.61 0 0 1 .89.67 3.3 3.3 0 0 1 .73 1 3 3 0 0 1 .28 1.31 3.4 3.4 0 0 1-1.21 2.8 4.39 4.39 0 0 1-2.86 1 6 6 0 0 1-2.79-.63l.29-1.24a6.06 6.06 0 0 0 2.46.64 2.93 2.93 0 0 0 2-.63 2.21 2.21 0 0 0 .74-1.75 2.12 2.12 0 0 0-.48-1.4 5.32 5.32 0 0 0-1.78-1.17c-.89-.4-1.46-.68-1.72-.83a3.55 3.55 0 0 1-.77-.62 2.8 2.8 0 0 1-.6-.89 2.64 2.64 0 0 1-.21-1.06 2.87 2.87 0 0 1 1.1-2.39 4.39 4.39 0 0 1 2.8-.86 8 8 0 0 1 2.45.38Zm24.2 9.11L1004 657v-1l6.55-3.9v1.26l-5.25 3.21 5.25 3.12Zm23.15-9.11a6.45 6.45 0 0 0-2.09-.37 3 3 0 0 0-1.83.51 1.68 1.68 0 0 0-.7 1.46c0 .74.62 1.4 1.85 2 .91.42 1.51.72 1.81.88a4.61 4.61 0 0 1 .89.67 3.3 3.3 0 0 1 .73 1 3 3 0 0 1 .28 1.31 3.4 3.4 0 0 1-1.21 2.8 4.39 4.39 0 0 1-2.86 1 6.08 6.08 0 0 1-2.8-.63l.3-1.24a6.06 6.06 0 0 0 2.46.64 3 3 0 0 0 2-.63 2.21 2.21 0 0 0 .74-1.75 2.12 2.12 0 0 0-.48-1.4 5.32 5.32 0 0 0-1.78-1.17c-.89-.4-1.46-.68-1.72-.83a3.85 3.85 0 0 1-.78-.62 2.94 2.94 0 0 1-.59-.89 2.64 2.64 0 0 1-.21-1.06 2.87 2.87 0 0 1 1.1-2.39 4.38 4.38 0 0 1 2.79-.86 8 8 0 0 1 2.46.38Zm12.52 10.99h-6.45v-12.36h6.4v1.26h-5v3.82h4.77v1.25h-4.77v4.78h5Zm13.42 0h-1.79l-3.63-5.61h-1.59v5.61h-1.44v-12.36h3.5a4.2 4.2 0 0 1 2.78.86 2.92 2.92 0 0 1 1 2.37 3 3 0 0 1-.75 2 3.71 3.71 0 0 1-2 1.2Zm-7-6.86h1.81a2.72 2.72 0 0 0 1.85-.62 2 2 0 0 0 .71-1.56c0-1.37-.84-2.06-2.52-2.06h-1.85Zm16.69 6.86h-5.61v-1.25h2.12v-9.85h-2.12v-1.26h5.61v1.26h-2v9.85h2Zm12.4 0h-6.45v-12.36h6.4v1.26h-5v3.82h4.77v1.25h-4.77v4.78h5Zm11.16-10.99a6.56 6.56 0 0 0-2.1-.37 3 3 0 0 0-1.82.51 1.69 1.69 0 0 0-.71 1.46c0 .74.62 1.4 1.85 2 .91.42 1.51.72 1.81.88a5 5 0 0 1 .9.67 3.68 3.68 0 0 1 .73 1 3.1 3.1 0 0 1 .27 1.31 3.4 3.4 0 0 1-1.21 2.8 4.39 4.39 0 0 1-2.86 1 6 6 0 0 1-2.79-.63l.3-1.24a6.06 6.06 0 0 0 2.46.64 2.92 2.92 0 0 0 2-.63 2.18 2.18 0 0 0 .74-1.75 2.12 2.12 0 0 0-.48-1.4 5.21 5.21 0 0 0-1.78-1.17c-.88-.4-1.46-.68-1.72-.83a3.55 3.55 0 0 1-.77-.62 2.8 2.8 0 0 1-.6-.89 2.64 2.64 0 0 1-.21-1.06 2.85 2.85 0 0 1 1.11-2.39 4.34 4.34 0 0 1 2.79-.86 8 8 0 0 1 2.45.38Zm-223.56-23.01h-1.38v-10.59l-1.9 5.07h-1.36l-1.87-5.07v10.59h-1.38v-12.35h1.87l2.06 5.63 2.06-5.63h1.86Zm11.41-3.89a4.69 4.69 0 0 1-.87 3.14 3.34 3.34 0 0 1-2.65 1q-3.58 0-3.58-4.09v-8.5H875v8.37c0 2 .71 3 2.14 3a1.82 1.82 0 0 0 1.58-.7 4 4 0 0 0 .51-2.28v-8.35h1.43Zm10.92-7.1a6.5 6.5 0 0 0-2.09-.37 3 3 0 0 0-1.83.51 1.68 1.68 0 0 0-.7 1.46c0 .74.61 1.4 1.84 2 .92.42 1.52.71 1.81.87a4.44 4.44 0 0 1 .9.68 3.23 3.23 0 0 1 .73 1 3.07 3.07 0 0 1 .28 1.31 3.4 3.4 0 0 1-1.22 2.79 4.31 4.31 0 0 1-2.85 1 5.93 5.93 0 0 1-2.8-.63l.3-1.24a6.06 6.06 0 0 0 2.46.64 3 3 0 0 0 2-.63 2.2 2.2 0 0 0 .73-1.75 2 2 0 0 0-.48-1.39 5.1 5.1 0 0 0-1.77-1.18c-.89-.4-1.46-.68-1.72-.83a3.53 3.53 0 0 1-.78-.62 2.73 2.73 0 0 1-.8-1.95 2.84 2.84 0 0 1 1.1-2.39 4.4 4.4 0 0 1 2.79-.86 8.29 8.29 0 0 1 2.45.38Zm11.95 10.99H898v-1.25h2.12v-9.85H898v-1.25h5.61v1.25h-2v9.85h2Zm13.09-.77a5.78 5.78 0 0 1-3.37 1 4.29 4.29 0 0 1-3.65-1.65 7.78 7.78 0 0 1-1.25-4.76 8 8 0 0 1 1.21-4.71 4.22 4.22 0 0 1 3.69-1.71 7.17 7.17 0 0 1 1.77.23 4.4 4.4 0 0 1 1.41.6l-.48 1.13a5.43 5.43 0 0 0-2.7-.7 2.83 2.83 0 0 0-2.54 1.24 7.14 7.14 0 0 0-.83 3.92q0 5.15 3.37 5.15a5.72 5.72 0 0 0 2.92-.88Zm23.67 0a5.76 5.76 0 0 1-3.37 1 4.27 4.27 0 0 1-3.64-1.65 7.78 7.78 0 0 1-1.25-4.76 8 8 0 0 1 1.21-4.71 4.19 4.19 0 0 1 3.68-1.71 7 7 0 0 1 1.77.23 4.21 4.21 0 0 1 1.41.6l-.47 1.13a5.5 5.5 0 0 0-2.71-.7 2.86 2.86 0 0 0-2.54 1.24 7.23 7.23 0 0 0-.83 3.92c0 3.43 1.13 5.15 3.37 5.15a5.75 5.75 0 0 0 2.93-.88Zm7.82-11.82a3.58 3.58 0 0 1 3.17 1.64 8.74 8.74 0 0 1 1.09 4.78 8.6 8.6 0 0 1-1.09 4.76 3.86 3.86 0 0 1-6.32 0 11 11 0 0 1 0-9.54 3.55 3.55 0 0 1 3.15-1.64Zm0 11.57q2.73 0 2.73-5.15t-2.73-5.16a2.2 2.2 0 0 0-2 1.34 10.95 10.95 0 0 0 0 7.65 2.19 2.19 0 0 0 2 1.32Zm15.86 1.02h-1.4v-10.59l-1.87 5.07h-1.35l-1.87-5.07v10.59h-1.38v-12.35H958l2.07 5.63 2.06-5.63H964Zm4.7-12.35h3.13a4.27 4.27 0 0 1 2.85.89 3.05 3.05 0 0 1 1.07 2.46 3.21 3.21 0 0 1-1.07 2.52 4 4 0 0 1-2.78.94h-1.77v5.54h-1.43Zm1.43 5.56h1.56c1.69 0 2.53-.71 2.53-2.12a2 2 0 0 0-.68-1.59 2.61 2.61 0 0 0-1.78-.6h-1.63Zm13.52-5.8a3.58 3.58 0 0 1 3.17 1.64 8.74 8.74 0 0 1 1.09 4.78 8.6 8.6 0 0 1-1.09 4.76 3.86 3.86 0 0 1-6.32 0 11 11 0 0 1 0-9.54 3.55 3.55 0 0 1 3.15-1.64Zm0 11.57q2.73 0 2.73-5.15t-2.73-5.16a2.2 2.2 0 0 0-2 1.34 10.95 10.95 0 0 0 0 7.65 2.19 2.19 0 0 0 2 1.32Zm14.49-9.97a6.45 6.45 0 0 0-2.09-.37 3 3 0 0 0-1.83.51 1.68 1.68 0 0 0-.7 1.46c0 .74.62 1.4 1.85 2 .91.42 1.51.71 1.81.87a4.69 4.69 0 0 1 .89.68 3.08 3.08 0 0 1 .73 1 2.93 2.93 0 0 1 .28 1.31 3.39 3.39 0 0 1-1.21 2.79 4.36 4.36 0 0 1-2.86 1 5.93 5.93 0 0 1-2.8-.63l.3-1.24a6.06 6.06 0 0 0 2.46.64 3 3 0 0 0 2-.63 2.21 2.21 0 0 0 .74-1.75 2.08 2.08 0 0 0-.48-1.39 5.16 5.16 0 0 0-1.78-1.18c-.89-.4-1.46-.68-1.72-.83a3.53 3.53 0 0 1-.78-.62 2.89 2.89 0 0 1-.59-.88 2.72 2.72 0 0 1-.21-1.07 2.87 2.87 0 0 1 1.1-2.39 4.44 4.44 0 0 1 2.79-.86 8.35 8.35 0 0 1 2.46.38Zm11.95 10.99h-5.61v-1.25h2.13v-9.85h-2.13v-1.25h5.61v1.25H1008v9.85h2.05Zm13.64-11.19h-3.81v11.19h-1.43v-11.19h-3.83v-1.16h9.07Zm10.04 11.19h-5.62v-1.25h2.13v-9.85h-2.13v-1.25h5.62v1.25h-2v9.85h2Zm9.07-12.59a3.56 3.56 0 0 1 3.16 1.64 11 11 0 0 1 0 9.54 3.87 3.87 0 0 1-6.33 0 11 11 0 0 1 0-9.54 3.56 3.56 0 0 1 3.17-1.64Zm0 11.57q2.73 0 2.73-5.15t-2.73-5.16a2.19 2.19 0 0 0-2 1.34 8.47 8.47 0 0 0-.7 3.82 8.33 8.33 0 0 0 .7 3.83 2.18 2.18 0 0 0 2 1.32Zm15.58 1.02h-1.59l-4.43-9.75v9.75h-1.4v-12.35h1.6l4.45 9.66v-9.66h1.41Zm143.65-81.19h4.83l3.38-6.96h-4.79l-3.42 6.96z"/></g></svg>
