<svg xmlns="http://www.w3.org/2000/svg" viewBox="0 0 1920 1070.71"><defs><style>.cls-1{fill:#fff;}</style></defs><g id="Capa_2" data-name="Capa 2"><g id="ARTE"><rect class="cls-1" width="1920" height="1070.71"/><path d="M1005.28,488.5l-12.16,18.29a1.17,1.17,0,0,1-1,.51H917a1.15,1.15,0,0,1-1-1.79l11.32-17Z"/><path d="M902.54,442.31l24.84,46.19,12.13-18.23a1.14,1.14,0,0,0,0-1.18L915.63,424.6a1.15,1.15,0,0,0-2-.09l-11.06,16.62A1.16,1.16,0,0,0,902.54,442.31Z"/><path d="M941.49,442.31l24.7,45.93a.17.17,0,0,0,.3,0l12-18a1.16,1.16,0,0,0,0-1.18L954.58,424.6a1.15,1.15,0,0,0-2-.09l-11.06,16.62A1.16,1.16,0,0,0,941.49,442.31Z"/><path d="M980.44,442.31l24.84,46.19,12.13-18.23a1.16,1.16,0,0,0,.05-1.18L993.53,424.6a1.15,1.15,0,0,0-2-.09l-11.06,16.62A1.14,1.14,0,0,0,980.44,442.31Z"/><path d="M927.11,420.25a22,22,0,0,1,2.39-2.8,30.8,30.8,0,0,1,2.77-2.46,34.54,34.54,0,0,1,13.46-6.49,33.83,33.83,0,0,1,7.59-.84,37.46,37.46,0,0,1,3.82.22c1.26.21,2.53.37,3.76.7s2.44.69,3.64,1.09l1.75.71.87.37.84.43a36.21,36.21,0,0,1,11.59,9.07,88.75,88.75,0,0,0-13-5.73l-.81-.28L965,414l-1.65-.47c-1.11-.22-2.2-.54-3.32-.69a36.85,36.85,0,0,0-6.7-.6A42.58,42.58,0,0,0,940,414.38a53.1,53.1,0,0,0-6.49,2.53A61.34,61.34,0,0,0,927.11,420.25Z"/><path d="M711.37,557.5V561h7.93v5.8h-7.93v3.51h14.07v5.8H704.93V551.7h20.51v5.8Z"/><path d="M760,563.76v.3a11.55,11.55,0,0,1-3.49,8.69,12.5,12.5,0,0,1-9.05,3.37h-8.58V551.7h8.58a12.54,12.54,0,0,1,9.05,3.37A11.55,11.55,0,0,1,760,563.76Zm-14.68,6.56h2.14a5.72,5.72,0,0,0,4.34-1.75,6.28,6.28,0,0,0,1.67-4.51v-.3a6.32,6.32,0,0,0-1.67-4.51,5.72,5.72,0,0,0-4.34-1.75h-2.14Z"/><path d="M795.45,551.7v14.62a9.84,9.84,0,0,1-3,7.39q-3,2.89-8.32,2.9t-8.3-2.9a9.83,9.83,0,0,1-3-7.39V551.7h6.38v13.52a5.4,5.4,0,0,0,1.34,3.8,5.08,5.08,0,0,0,7.19,0,5.48,5.48,0,0,0,1.33-3.8L789,551.7Z"/><path d="M824.33,572.18H814.2l-1.44,3.94H806.2l9.09-24.42h7.94l9.1,24.42h-6.54Zm-8.09-5.8h6l-3-9.18Z"/><path d="M866.52,559.42a7.92,7.92,0,0,1-.94,3.85,6.89,6.89,0,0,1-2.66,2.72l3.54,10.13h-6.84l-3-9.13H851v9.13h-6.44V551.7H859a7.15,7.15,0,0,1,5.48,2.24A7.73,7.73,0,0,1,866.52,559.42ZM851,561.23h7.79a1.91,1.91,0,0,0,1.39-.46,1.77,1.77,0,0,0,.53-1.35,1.85,1.85,0,0,0-.55-1.39,1.91,1.91,0,0,0-1.37-.53H851Z"/><path d="M901.45,563.76v.3a11.56,11.56,0,0,1-3.5,8.69,12.47,12.47,0,0,1-9.05,3.37h-8.58V551.7h8.58a12.51,12.51,0,0,1,9.05,3.37A11.56,11.56,0,0,1,901.45,563.76Zm-14.68,6.56h2.13a5.75,5.75,0,0,0,4.35-1.75,6.28,6.28,0,0,0,1.67-4.51v-.3a6.32,6.32,0,0,0-1.67-4.51,5.75,5.75,0,0,0-4.35-1.75h-2.13Z"/><path d="M926.5,576.64a12.56,12.56,0,0,1-9.24-3.66,13,13,0,0,1,0-18.13,13.49,13.49,0,0,1,18.5,0,13,13,0,0,1,0,18.13A12.59,12.59,0,0,1,926.5,576.64Zm-4.51-8a6.23,6.23,0,0,0,9,0,6.79,6.79,0,0,0,0-9.36,6.22,6.22,0,0,0-9,0,6.91,6.91,0,0,0,0,9.39Z"/><path d="M995.57,551.7v24.42h-6.44v-9.31h-9.06v9.31h-6.44V551.7h6.44V561h9.06V551.7Z"/><path d="M1016.79,551.7v24.42h-6.44V551.7Z"/><path d="M1054.74,551.7v24.42h-5.56l-9.92-12.39-1.25-1.92v14.31h-6.44V551.7h5.49l10.26,13.16,1,1.52V551.7Z"/><path d="M1081,570.47a5.9,5.9,0,0,0,4.49-2l4.76,4.24a12.72,12.72,0,0,1-4.13,2.89,13,13,0,0,1-14.23-2.66,12.75,12.75,0,0,1,0-18,13,13,0,0,1,14.23-2.66,12.87,12.87,0,0,1,4.13,2.89l-4.79,4.21a5.85,5.85,0,0,0-4.46-2,5.93,5.93,0,0,0-4.5,1.89,7,7,0,0,0,0,9.34A5.93,5.93,0,0,0,1081,570.47Z"/><path d="M1119,572.18h-10.13l-1.44,3.94h-6.56l9.1-24.42h7.93l9.1,24.42h-6.53Zm-8.09-5.8h6l-3-9.18Z"/><path d="M1139.23,551.7h14.44a7.18,7.18,0,0,1,5.48,2.24,7.78,7.78,0,0,1,2.09,5.48,7.6,7.6,0,0,1-2.09,5.42,7.2,7.2,0,0,1-5.48,2.22l-8,0v9.1h-6.44Zm6.44,9.53h7.78a1.91,1.91,0,0,0,1.39-.46,1.74,1.74,0,0,0,.54-1.35,1.88,1.88,0,0,0-.55-1.39,1.93,1.93,0,0,0-1.38-.53h-7.78Z"/><path d="M1179.8,551.7v24.42h-6.44V551.7Z"/><path d="M1201,557.5V561h7.94v5.8H1201v3.51h14.07v5.8h-20.51V551.7h20.51v5.8Z"/><path d="M833.77,662a5.55,5.55,0,0,1-3.35,1.11,4.3,4.3,0,0,1-3.65-1.64,7.75,7.75,0,0,1-1.25-4.77,8,8,0,0,1,1.21-4.73,4.21,4.21,0,0,1,3.69-1.69,7.17,7.17,0,0,1,1.77.23,4.4,4.4,0,0,1,1.41.6l-.48,1.13a5.33,5.33,0,0,0-2.7-.7,2.86,2.86,0,0,0-2.54,1.24,7.26,7.26,0,0,0-.83,3.92q0,5.15,3.37,5.14a3,3,0,0,0,1.92-.53v-3h-2.23V657h3.66Z"/><path d="M846.55,662.82H845l-1.37-4.33h-4l-1.38,4.33h-1.49l4-12.36h1.73Zm-3.29-5.58-1.62-5.11L840,657.24Z"/><path d="M857.45,662.82h-1.39V652.23l-1.86,5.06h-1.36L851,652.23v10.59h-1.38V650.46h1.87l2.06,5.63,2.06-5.63h1.87Z"/><path d="M868.62,662.82h-6.46V650.46h6.4v1.26h-5v3.82h4.77v1.25H863.6v4.78h5Z"/><path d="M879.77,651.83a6.45,6.45,0,0,0-2.09-.37,3,3,0,0,0-1.83.51,1.68,1.68,0,0,0-.7,1.46c0,.74.61,1.4,1.85,2,.91.42,1.51.72,1.8.88a4.37,4.37,0,0,1,.9.67,3.48,3.48,0,0,1,.73,1,3,3,0,0,1,.28,1.31,3.43,3.43,0,0,1-1.21,2.8,4.41,4.41,0,0,1-2.86,1,6.05,6.05,0,0,1-2.8-.63l.3-1.24a6.06,6.06,0,0,0,2.46.64,3,3,0,0,0,2-.63,2.21,2.21,0,0,0,.74-1.75,2.08,2.08,0,0,0-.49-1.4,5.25,5.25,0,0,0-1.77-1.17c-.89-.4-1.46-.68-1.72-.83a3.85,3.85,0,0,1-.78-.62,2.94,2.94,0,0,1-.59-.89,2.64,2.64,0,0,1-.21-1.06,2.84,2.84,0,0,1,1.1-2.39,4.38,4.38,0,0,1,2.79-.86,8,8,0,0,1,2.46.38Z"/><path d="M904,660.94,897.42,657v-1l6.55-3.9v1.26l-5.25,3.21,5.25,3.12Z"/><path d="M928.47,662.82h-1.39V652.23l-1.86,5.06h-1.36L922,652.23v10.59h-1.39V650.46h1.87l2.07,5.63,2.05-5.63h1.87Z"/><path d="M936.3,650.23a3.58,3.58,0,0,1,3.17,1.64,11,11,0,0,1,0,9.54,3.85,3.85,0,0,1-6.32,0,8.57,8.57,0,0,1-1.09-4.76,8.68,8.68,0,0,1,1.08-4.77A3.56,3.56,0,0,1,936.3,650.23Zm0,11.56c1.83,0,2.73-1.71,2.73-5.14s-.9-5.16-2.73-5.16a2.2,2.2,0,0,0-2,1.33,10.9,10.9,0,0,0,0,7.66A2.2,2.2,0,0,0,936.3,661.79Z"/><path d="M953,650.46l-4,12.36h-1.73l-4-12.36h1.5l3.39,10.7,3.41-10.7Z"/><path d="M962.74,662.82h-5.61v-1.25h2.13v-9.85h-2.13v-1.26h5.61v1.26h-2v9.85h2Z"/><path d="M975.15,662.82H968.7V650.46h6.4v1.26h-5v3.82h4.77v1.25h-4.77v4.78h5Z"/><path d="M986.3,651.83a6.45,6.45,0,0,0-2.09-.37,3,3,0,0,0-1.82.51,1.69,1.69,0,0,0-.71,1.46c0,.74.62,1.4,1.85,2,.91.42,1.51.72,1.81.88a4.61,4.61,0,0,1,.89.67,3.3,3.3,0,0,1,.73,1,3,3,0,0,1,.28,1.31,3.4,3.4,0,0,1-1.21,2.8,4.39,4.39,0,0,1-2.86,1,6,6,0,0,1-2.79-.63l.29-1.24a6.06,6.06,0,0,0,2.46.64,2.93,2.93,0,0,0,2-.63,2.21,2.21,0,0,0,.74-1.75,2.12,2.12,0,0,0-.48-1.4,5.32,5.32,0,0,0-1.78-1.17c-.89-.4-1.46-.68-1.72-.83a3.55,3.55,0,0,1-.77-.62,2.8,2.8,0,0,1-.6-.89,2.64,2.64,0,0,1-.21-1.06,2.87,2.87,0,0,1,1.1-2.39,4.39,4.39,0,0,1,2.8-.86,8,8,0,0,1,2.45.38Z"/><path d="M1010.5,660.94,1004,657v-1l6.55-3.9v1.26l-5.25,3.21,5.25,3.12Z"/><path d="M1033.65,651.83a6.45,6.45,0,0,0-2.09-.37,3,3,0,0,0-1.83.51,1.68,1.68,0,0,0-.7,1.46c0,.74.62,1.4,1.85,2,.91.42,1.51.72,1.81.88a4.61,4.61,0,0,1,.89.67,3.3,3.3,0,0,1,.73,1,3,3,0,0,1,.28,1.31,3.4,3.4,0,0,1-1.21,2.8,4.39,4.39,0,0,1-2.86,1,6.08,6.08,0,0,1-2.8-.63l.3-1.24a6.06,6.06,0,0,0,2.46.64,3,3,0,0,0,2-.63,2.21,2.21,0,0,0,.74-1.75,2.12,2.12,0,0,0-.48-1.4,5.32,5.32,0,0,0-1.78-1.17c-.89-.4-1.46-.68-1.72-.83a3.85,3.85,0,0,1-.78-.62,2.94,2.94,0,0,1-.59-.89,2.64,2.64,0,0,1-.21-1.06,2.87,2.87,0,0,1,1.1-2.39,4.38,4.38,0,0,1,2.79-.86,8,8,0,0,1,2.46.38Z"/><path d="M1046.17,662.82h-6.45V650.46h6.4v1.26h-5v3.82h4.77v1.25h-4.77v4.78h5Z"/><path d="M1059.59,662.82h-1.79l-3.63-5.61h-1.59v5.61h-1.44V650.46h3.5a4.2,4.2,0,0,1,2.78.86,2.92,2.92,0,0,1,1,2.37,3,3,0,0,1-.75,2,3.71,3.71,0,0,1-2,1.2Zm-7-6.86h1.81a2.72,2.72,0,0,0,1.85-.62,2,2,0,0,0,.71-1.56c0-1.37-.84-2.06-2.52-2.06h-1.85Z"/><path d="M1069.28,662.82h-5.61v-1.25h2.12v-9.85h-2.12v-1.26h5.61v1.26h-2v9.85h2Z"/><path d="M1081.68,662.82h-6.45V650.46h6.4v1.26h-5v3.82h4.77v1.25h-4.77v4.78h5Z"/><path d="M1092.84,651.83a6.56,6.56,0,0,0-2.1-.37,3,3,0,0,0-1.82.51,1.69,1.69,0,0,0-.71,1.46c0,.74.62,1.4,1.85,2,.91.42,1.51.72,1.81.88a5,5,0,0,1,.9.67,3.68,3.68,0,0,1,.73,1,3.1,3.1,0,0,1,.27,1.31,3.4,3.4,0,0,1-1.21,2.8,4.39,4.39,0,0,1-2.86,1,6,6,0,0,1-2.79-.63l.3-1.24a6.06,6.06,0,0,0,2.46.64,2.92,2.92,0,0,0,2-.63,2.18,2.18,0,0,0,.74-1.75,2.12,2.12,0,0,0-.48-1.4,5.21,5.21,0,0,0-1.78-1.17c-.88-.4-1.46-.68-1.72-.83a3.55,3.55,0,0,1-.77-.62,2.8,2.8,0,0,1-.6-.89,2.64,2.64,0,0,1-.21-1.06,2.85,2.85,0,0,1,1.11-2.39,4.34,4.34,0,0,1,2.79-.86,8,8,0,0,1,2.45.38Z"/><path d="M869.28,628.82H867.9V618.23L866,623.3h-1.36l-1.87-5.07v10.59h-1.38V616.47h1.87l2.06,5.63,2.06-5.63h1.86Z"/><path d="M880.69,624.93a4.69,4.69,0,0,1-.87,3.14,3.34,3.34,0,0,1-2.65,1q-3.58,0-3.58-4.09v-8.5H875v8.37c0,2,.71,3,2.14,3a1.82,1.82,0,0,0,1.58-.7,4,4,0,0,0,.51-2.28v-8.35h1.43Z"/><path d="M891.61,617.83a6.5,6.5,0,0,0-2.09-.37,3,3,0,0,0-1.83.51,1.68,1.68,0,0,0-.7,1.46c0,.74.61,1.4,1.84,2,.92.42,1.52.71,1.81.87a4.44,4.44,0,0,1,.9.68,3.23,3.23,0,0,1,.73,1,3.07,3.07,0,0,1,.28,1.31,3.4,3.4,0,0,1-1.22,2.79,4.31,4.31,0,0,1-2.85,1,5.93,5.93,0,0,1-2.8-.63l.3-1.24a6.06,6.06,0,0,0,2.46.64,3,3,0,0,0,2-.63,2.2,2.2,0,0,0,.73-1.75,2,2,0,0,0-.48-1.39,5.1,5.1,0,0,0-1.77-1.18c-.89-.4-1.46-.68-1.72-.83a3.53,3.53,0,0,1-.78-.62,2.73,2.73,0,0,1-.8-1.95,2.84,2.84,0,0,1,1.1-2.39,4.4,4.4,0,0,1,2.79-.86,8.29,8.29,0,0,1,2.45.38Z"/><path d="M903.56,628.82H898v-1.25h2.12v-9.85H898v-1.25h5.61v1.25h-2v9.85h2Z"/><path d="M916.65,628.05a5.78,5.78,0,0,1-3.37,1,4.29,4.29,0,0,1-3.65-1.65,7.78,7.78,0,0,1-1.25-4.76,8,8,0,0,1,1.21-4.71,4.22,4.22,0,0,1,3.69-1.71,7.17,7.17,0,0,1,1.77.23,4.4,4.4,0,0,1,1.41.6l-.48,1.13a5.43,5.43,0,0,0-2.7-.7,2.83,2.83,0,0,0-2.54,1.24,7.14,7.14,0,0,0-.83,3.92q0,5.15,3.37,5.15a5.72,5.72,0,0,0,2.92-.88Z"/><path d="M940.32,628.05a5.76,5.76,0,0,1-3.37,1,4.27,4.27,0,0,1-3.64-1.65,7.78,7.78,0,0,1-1.25-4.76,8,8,0,0,1,1.21-4.71,4.19,4.19,0,0,1,3.68-1.71,7,7,0,0,1,1.77.23,4.21,4.21,0,0,1,1.41.6l-.47,1.13a5.5,5.5,0,0,0-2.71-.7,2.86,2.86,0,0,0-2.54,1.24,7.23,7.23,0,0,0-.83,3.92c0,3.43,1.13,5.15,3.37,5.15a5.75,5.75,0,0,0,2.93-.88Z"/><path d="M948.14,616.23a3.58,3.58,0,0,1,3.17,1.64,8.74,8.74,0,0,1,1.09,4.78,8.6,8.6,0,0,1-1.09,4.76,3.86,3.86,0,0,1-6.32,0,11,11,0,0,1,0-9.54A3.55,3.55,0,0,1,948.14,616.23Zm0,11.57q2.73,0,2.73-5.15t-2.73-5.16a2.2,2.2,0,0,0-2,1.34,10.95,10.95,0,0,0,0,7.65A2.19,2.19,0,0,0,948.14,627.8Z"/><path d="M964,628.82H962.6V618.23l-1.87,5.07h-1.35l-1.87-5.07v10.59h-1.38V616.47H958l2.07,5.63,2.06-5.63H964Z"/><path d="M968.7,616.47h3.13a4.27,4.27,0,0,1,2.85.89,3.05,3.05,0,0,1,1.07,2.46,3.21,3.21,0,0,1-1.07,2.52,4,4,0,0,1-2.78.94h-1.77v5.54H968.7Zm1.43,5.56h1.56c1.69,0,2.53-.71,2.53-2.12a2,2,0,0,0-.68-1.59,2.61,2.61,0,0,0-1.78-.6h-1.63Z"/><path d="M983.65,616.23a3.58,3.58,0,0,1,3.17,1.64,8.74,8.74,0,0,1,1.09,4.78,8.6,8.6,0,0,1-1.09,4.76,3.86,3.86,0,0,1-6.32,0,11,11,0,0,1,0-9.54A3.55,3.55,0,0,1,983.65,616.23Zm0,11.57q2.73,0,2.73-5.15t-2.73-5.16a2.2,2.2,0,0,0-2,1.34,10.95,10.95,0,0,0,0,7.65A2.19,2.19,0,0,0,983.65,627.8Z"/><path d="M998.14,617.83a6.45,6.45,0,0,0-2.09-.37,3,3,0,0,0-1.83.51,1.68,1.68,0,0,0-.7,1.46c0,.74.62,1.4,1.85,2,.91.42,1.51.71,1.81.87a4.69,4.69,0,0,1,.89.68,3.08,3.08,0,0,1,.73,1,2.93,2.93,0,0,1,.28,1.31,3.39,3.39,0,0,1-1.21,2.79,4.36,4.36,0,0,1-2.86,1,5.93,5.93,0,0,1-2.8-.63l.3-1.24a6.06,6.06,0,0,0,2.46.64,3,3,0,0,0,2-.63,2.21,2.21,0,0,0,.74-1.75,2.08,2.08,0,0,0-.48-1.39,5.16,5.16,0,0,0-1.78-1.18c-.89-.4-1.46-.68-1.72-.83a3.53,3.53,0,0,1-.78-.62,2.89,2.89,0,0,1-.59-.88,2.72,2.72,0,0,1-.21-1.07,2.87,2.87,0,0,1,1.1-2.39,4.44,4.44,0,0,1,2.79-.86,8.35,8.35,0,0,1,2.46.38Z"/><path d="M1010.09,628.82h-5.61v-1.25h2.13v-9.85h-2.13v-1.25h5.61v1.25H1008v9.85h2.05Z"/><path d="M1023.73,617.63h-3.81v11.19h-1.43V617.63h-3.83v-1.16h9.07Z"/><path d="M1033.77,628.82h-5.62v-1.25h2.13v-9.85h-2.13v-1.25h5.62v1.25h-2v9.85h2Z"/><path d="M1042.84,616.23a3.56,3.56,0,0,1,3.16,1.64,11,11,0,0,1,0,9.54,3.87,3.87,0,0,1-6.33,0,11,11,0,0,1,0-9.54A3.56,3.56,0,0,1,1042.84,616.23Zm0,11.57q2.73,0,2.73-5.15t-2.73-5.16a2.19,2.19,0,0,0-2,1.34,8.47,8.47,0,0,0-.7,3.82,8.33,8.33,0,0,0,.7,3.83A2.18,2.18,0,0,0,1042.84,627.8Z"/><path d="M1058.42,628.82h-1.59l-4.43-9.75v9.75H1051V616.47h1.6l4.45,9.66v-9.66h1.41Z"/><polygon points="1202.07 547.63 1206.9 547.63 1210.28 540.67 1205.49 540.67 1202.07 547.63"/></g></g></svg>