<?xml version="1.0" encoding="utf-8"?>
<!-- Generator: Adobe Illustrator 24.1.0, SVG Export Plug-In . SVG Version: 6.00 Build 0)  -->
<svg version="1.1" xmlns="http://www.w3.org/2000/svg" xmlns:xlink="http://www.w3.org/1999/xlink" x="0px" y="0px"
	 viewBox="0 0 585.14 335.24" style="enable-background:new 0 0 585.14 335.24;" xml:space="preserve">
<g id="ARTE">
</g>
<g id="Capa_2">
	<g>
		<g>
			<path d="M337.85,120.76l-12.17,18.29c-0.21,0.32-0.58,0.52-0.96,0.52H249.6c-0.92,0-1.47-1.02-0.96-1.79l11.32-17.01H337.85z"/>
			<path d="M235.11,74.58l24.85,46.18l12.13-18.23c0.24-0.35,0.26-0.81,0.06-1.18L248.2,56.86c-0.41-0.77-1.5-0.82-1.98-0.09
				L235.16,73.4C234.93,73.75,234.91,74.2,235.11,74.58z"/>
			<path d="M274.06,74.58l24.71,45.93c0.06,0.12,0.23,0.12,0.3,0.01l11.96-17.98c0.24-0.35,0.26-0.81,0.06-1.18l-23.93-44.49
				c-0.41-0.77-1.5-0.82-1.98-0.09L274.11,73.4C273.88,73.75,273.86,74.2,274.06,74.58z"/>
			<path d="M313.01,74.58l24.85,46.18l12.13-18.23c0.24-0.35,0.26-0.81,0.06-1.18L326.1,56.86c-0.41-0.77-1.5-0.82-1.98-0.09
				L313.06,73.4C312.83,73.75,312.81,74.2,313.01,74.58z"/>
			<path d="M259.68,52.51c0.7-1.01,1.53-1.92,2.39-2.8c0.86-0.88,1.79-1.69,2.76-2.46c1.94-1.53,4.07-2.87,6.33-3.96
				c2.26-1.09,4.65-1.95,7.13-2.53c2.48-0.57,5.03-0.85,7.59-0.85c1.28-0.01,2.55,0.12,3.82,0.22c1.26,0.21,2.53,0.37,3.76,0.7
				c1.24,0.27,2.44,0.69,3.64,1.09c0.59,0.23,1.17,0.47,1.75,0.71l0.87,0.37l0.84,0.42c4.49,2.25,8.45,5.32,11.59,9.07
				c-4.34-2.25-8.59-4.29-12.97-5.72l-0.81-0.28l-0.83-0.23l-1.65-0.47c-1.12-0.22-2.21-0.54-3.33-0.69c-2.22-0.4-4.46-0.61-6.7-0.6
				c-4.48-0.03-8.97,0.71-13.35,2.12c-2.19,0.69-4.35,1.55-6.49,2.53C263.88,50.15,261.78,51.25,259.68,52.51z"/>
		</g>
		<g>
			<path d="M43.94,189.76v3.51h7.94v5.8h-7.94v3.51h14.07v5.8H37.5v-24.42h20.51v5.8H43.94z"/>
			<path d="M92.52,196.02v0.15v0.15c0,3.54-1.16,6.44-3.49,8.69c-2.33,2.25-5.35,3.37-9.05,3.37H71.4v-24.42h8.58
				c3.7,0,6.72,1.13,9.05,3.37C91.36,189.59,92.52,192.48,92.52,196.02z M77.84,202.58h2.14c1.79,0,3.24-0.59,4.35-1.75
				c1.11-1.17,1.66-2.67,1.66-4.5v-0.15v-0.15c0-1.83-0.56-3.33-1.66-4.5c-1.11-1.17-2.56-1.75-4.35-1.75h-2.14V202.58z"/>
			<path d="M128.02,183.96v14.62c0,2.99-1,5.45-3.01,7.38c-2,1.94-4.78,2.9-8.32,2.9c-3.54,0-6.31-0.97-8.3-2.9
				c-1.99-1.93-2.99-4.39-2.99-7.38v-14.62h6.38v13.52c0,1.55,0.45,2.81,1.34,3.8c0.9,0.99,2.1,1.48,3.6,1.48
				c1.51,0,2.7-0.5,3.59-1.48c0.88-0.99,1.33-2.25,1.33-3.8l-0.06-13.52H128.02z"/>
			<path d="M156.9,204.45h-10.13l-1.43,3.94h-6.56l9.1-24.42h7.94l9.1,24.42h-6.53L156.9,204.45z M148.81,198.65h6.01l-2.99-9.19
				L148.81,198.65z"/>
			<path d="M199.09,191.69c0,1.4-0.32,2.69-0.95,3.85c-0.63,1.16-1.52,2.07-2.66,2.72l3.54,10.13h-6.84l-2.99-9.13h-5.68v9.13h-6.44
				v-24.42h14.44c2.26,0,4.08,0.75,5.48,2.24C198.4,187.7,199.09,189.53,199.09,191.69z M183.53,193.49h7.78
				c0.57,0.02,1.03-0.13,1.39-0.46c0.36-0.33,0.53-0.77,0.53-1.34c0-0.57-0.18-1.03-0.55-1.39c-0.37-0.35-0.82-0.53-1.37-0.53h-7.78
				V193.49z"/>
			<path d="M234.02,196.02v0.15v0.15c0,3.54-1.16,6.44-3.49,8.69c-2.33,2.25-5.35,3.37-9.05,3.37h-8.58v-24.42h8.58
				c3.7,0,6.72,1.13,9.05,3.37C232.85,189.59,234.02,192.48,234.02,196.02z M219.34,202.58h2.14c1.79,0,3.24-0.59,4.35-1.75
				c1.11-1.17,1.66-2.67,1.66-4.5v-0.15v-0.15c0-1.83-0.56-3.33-1.66-4.5c-1.11-1.17-2.56-1.75-4.35-1.75h-2.14V202.58z"/>
			<path d="M259.07,208.9c-3.7,0-6.78-1.22-9.23-3.67c-2.45-2.44-3.68-5.46-3.68-9.06s1.23-6.62,3.68-9.06
				c2.45-2.44,5.53-3.67,9.23-3.67c3.72,0,6.81,1.22,9.26,3.67c2.45,2.44,3.68,5.46,3.68,9.06s-1.23,6.62-3.68,9.06
				C265.88,207.68,262.79,208.9,259.07,208.9z M254.57,200.86c1.23,1.29,2.73,1.94,4.5,1.94c1.77,0,3.28-0.64,4.52-1.94
				c1.24-1.29,1.86-2.85,1.86-4.68c0-1.81-0.62-3.37-1.86-4.67c-1.24-1.3-2.75-1.95-4.52-1.95c-1.77,0-3.27,0.64-4.5,1.92
				c-1.23,1.28-1.85,2.85-1.85,4.7C252.72,198.01,253.33,199.57,254.57,200.86z"/>
			<path d="M328.15,183.96v24.42h-6.44v-9.31h-9.06v9.31h-6.44v-24.42h6.44v9.31h9.06v-9.31H328.15z"/>
			<path d="M349.37,183.96v24.42h-6.44v-24.42H349.37z"/>
			<path d="M387.31,183.96v24.42h-5.55l-9.92-12.39l-1.25-1.92v14.32h-6.44v-24.42h5.49l10.26,13.15l0.98,1.53v-14.68H387.31z"/>
			<path d="M413.6,202.74c1.75,0,3.25-0.67,4.49-2.02l4.76,4.25c-1.16,1.22-2.54,2.18-4.14,2.88c-1.6,0.7-3.29,1.05-5.08,1.05
				c-3.6,0-6.65-1.24-9.14-3.71c-2.49-2.47-3.74-5.48-3.74-9.02s1.25-6.55,3.74-9.02c2.49-2.47,5.54-3.71,9.14-3.71
				c1.79,0,3.49,0.35,5.08,1.05c1.6,0.7,2.98,1.66,4.14,2.88l-4.79,4.21c-1.22-1.32-2.71-1.98-4.46-1.98c-1.81,0-3.31,0.63-4.5,1.89
				s-1.79,2.82-1.79,4.67s0.59,3.41,1.79,4.67S411.79,202.74,413.6,202.74z"/>
			<path d="M451.61,204.45h-10.13l-1.43,3.94h-6.56l9.1-24.42h7.94l9.1,24.42h-6.53L451.61,204.45z M443.52,198.65h6.01l-2.99-9.19
				L443.52,198.65z"/>
			<path d="M471.8,183.96h14.44c2.26,0,4.08,0.75,5.48,2.24c1.39,1.5,2.09,3.32,2.09,5.48c0,2.14-0.7,3.94-2.09,5.42
				c-1.39,1.48-3.22,2.21-5.48,2.21l-8-0.03v9.1h-6.44V183.96z M478.24,193.49h7.78c0.57,0.02,1.03-0.13,1.39-0.46
				c0.36-0.33,0.53-0.77,0.53-1.34c0-0.57-0.18-1.03-0.55-1.39c-0.37-0.35-0.82-0.53-1.37-0.53h-7.78V193.49z"/>
			<path d="M512.37,183.96v24.42h-6.44v-24.42H512.37z"/>
			<path d="M533.57,189.76v3.51h7.94v5.8h-7.94v3.51h14.07v5.8h-20.51v-24.42h20.51v5.8H533.57z"/>
		</g>
		<g>
			<g>
				<path d="M166.34,294.21c-1.01,0.74-2.13,1.11-3.35,1.11c-1.6,0-2.82-0.54-3.65-1.63c-0.83-1.09-1.24-2.68-1.24-4.78
					c0-2.02,0.4-3.6,1.2-4.73c0.8-1.13,2.03-1.69,3.69-1.69c0.6,0,1.19,0.08,1.77,0.23c0.58,0.15,1.05,0.35,1.41,0.6l-0.47,1.13
					c-0.82-0.47-1.72-0.7-2.71-0.7c-1.13,0-1.98,0.41-2.54,1.24c-0.56,0.83-0.83,2.13-0.83,3.91c0,3.43,1.12,5.15,3.37,5.15
					c0.85,0,1.49-0.18,1.92-0.53v-3.05h-2.22v-1.24h3.66V294.21z"/>
				<path d="M179.12,295.08h-1.51l-1.37-4.33h-4.05l-1.38,4.33h-1.49l4.04-12.36h1.72L179.12,295.08z M175.83,289.51l-1.62-5.12
					l-1.61,5.12H175.83z"/>
				<path d="M190.02,295.08h-1.38v-10.59l-1.86,5.07h-1.36l-1.87-5.07v10.59h-1.38v-12.36h1.87l2.07,5.63l2.06-5.63h1.86V295.08z"/>
				<path d="M201.19,295.08h-6.45v-12.36h6.4v1.25h-4.96v3.82h4.77v1.25h-4.77v4.77h5.02V295.08z"/>
				<path d="M212.34,284.09c-0.74-0.25-1.43-0.38-2.09-0.38c-0.75,0-1.36,0.17-1.83,0.51c-0.47,0.34-0.71,0.82-0.71,1.46
					c0,0.75,0.62,1.4,1.85,1.97c0.91,0.42,1.51,0.71,1.81,0.88c0.29,0.16,0.59,0.39,0.9,0.67c0.3,0.29,0.55,0.63,0.73,1.01
					c0.18,0.39,0.28,0.82,0.28,1.31c0,1.2-0.4,2.14-1.21,2.8s-1.76,0.99-2.86,0.99c-1.06,0-1.99-0.21-2.79-0.63l0.3-1.23
					c0.94,0.42,1.76,0.64,2.46,0.64c0.82,0,1.47-0.21,1.97-0.63c0.49-0.42,0.74-1,0.74-1.75c0-0.55-0.16-1.01-0.48-1.39
					c-0.32-0.39-0.91-0.77-1.78-1.17c-0.89-0.41-1.46-0.69-1.72-0.83c-0.26-0.15-0.52-0.35-0.77-0.62c-0.26-0.26-0.45-0.56-0.6-0.88
					c-0.14-0.33-0.21-0.68-0.21-1.07c0-1.02,0.37-1.82,1.1-2.39c0.74-0.57,1.67-0.86,2.79-0.86c0.82,0,1.64,0.13,2.45,0.38
					L212.34,284.09z"/>
				<path d="M236.54,293.2l-6.55-3.93v-1.05l6.55-3.9v1.26l-5.25,3.21l5.25,3.12V293.2z"/>
				<path d="M261.04,295.08h-1.38v-10.59l-1.86,5.07h-1.36l-1.87-5.07v10.59h-1.38v-12.36h1.87l2.07,5.63l2.06-5.63h1.86V295.08z"/>
				<path d="M268.87,282.49c1.38,0,2.44,0.55,3.16,1.64c0.73,1.1,1.09,2.69,1.09,4.78c0,2.08-0.36,3.67-1.09,4.77
					c-0.72,1.1-1.78,1.65-3.17,1.65c-1.38,0-2.43-0.55-3.16-1.64c-0.73-1.1-1.09-2.69-1.09-4.77s0.36-3.67,1.08-4.77
					C266.44,283.04,267.49,282.49,268.87,282.49z M268.87,294.06c1.82,0,2.73-1.72,2.73-5.15c0-3.44-0.91-5.16-2.73-5.16
					c-0.89,0-1.56,0.45-2.03,1.33c-0.46,0.89-0.7,2.17-0.7,3.82c0,1.68,0.23,2.95,0.69,3.83
					C267.3,293.62,267.98,294.06,268.87,294.06z"/>
				<path d="M285.61,282.73l-4.03,12.36h-1.72l-4.04-12.36h1.51l3.39,10.69l3.41-10.69H285.61z"/>
				<path d="M295.32,295.08h-5.61v-1.25h2.13v-9.85h-2.13v-1.25h5.61v1.25h-2.05v9.85h2.05V295.08z"/>
				<path d="M307.72,295.08h-6.45v-12.36h6.4v1.25h-4.96v3.82h4.77v1.25h-4.77v4.77h5.02V295.08z"/>
				<path d="M318.88,284.09c-0.74-0.25-1.43-0.38-2.09-0.38c-0.75,0-1.36,0.17-1.83,0.51c-0.47,0.34-0.71,0.82-0.71,1.46
					c0,0.75,0.62,1.4,1.85,1.97c0.91,0.42,1.51,0.71,1.81,0.88c0.29,0.16,0.59,0.39,0.9,0.67c0.3,0.29,0.55,0.63,0.73,1.01
					c0.18,0.39,0.28,0.82,0.28,1.31c0,1.2-0.4,2.14-1.21,2.8c-0.81,0.66-1.76,0.99-2.86,0.99c-1.06,0-1.99-0.21-2.79-0.63l0.3-1.23
					c0.94,0.42,1.76,0.64,2.46,0.64c0.82,0,1.47-0.21,1.97-0.63c0.49-0.42,0.74-1,0.74-1.75c0-0.55-0.16-1.01-0.48-1.39
					c-0.32-0.39-0.91-0.77-1.78-1.17c-0.89-0.41-1.46-0.69-1.72-0.83c-0.26-0.15-0.52-0.35-0.77-0.62c-0.26-0.26-0.45-0.56-0.6-0.88
					c-0.14-0.33-0.21-0.68-0.21-1.07c0-1.02,0.37-1.82,1.1-2.39c0.74-0.57,1.67-0.86,2.79-0.86c0.82,0,1.64,0.13,2.45,0.38
					L318.88,284.09z"/>
				<path d="M343.07,293.2l-6.55-3.93v-1.05l6.55-3.9v1.26l-5.25,3.21l5.25,3.12V293.2z"/>
				<path d="M366.22,284.09c-0.74-0.25-1.43-0.38-2.09-0.38c-0.75,0-1.36,0.17-1.83,0.51c-0.47,0.34-0.71,0.82-0.71,1.46
					c0,0.75,0.62,1.4,1.85,1.97c0.91,0.42,1.51,0.71,1.81,0.88c0.29,0.16,0.59,0.39,0.9,0.67c0.3,0.29,0.55,0.63,0.73,1.01
					c0.18,0.39,0.28,0.82,0.28,1.31c0,1.2-0.4,2.14-1.21,2.8c-0.81,0.66-1.76,0.99-2.86,0.99c-1.06,0-1.99-0.21-2.79-0.63l0.3-1.23
					c0.94,0.42,1.76,0.64,2.46,0.64c0.82,0,1.47-0.21,1.97-0.63c0.49-0.42,0.74-1,0.74-1.75c0-0.55-0.16-1.01-0.48-1.39
					c-0.32-0.39-0.91-0.77-1.78-1.17c-0.89-0.41-1.46-0.69-1.72-0.83c-0.26-0.15-0.52-0.35-0.77-0.62c-0.26-0.26-0.45-0.56-0.6-0.88
					c-0.14-0.33-0.21-0.68-0.21-1.07c0-1.02,0.37-1.82,1.1-2.39c0.74-0.57,1.67-0.86,2.79-0.86c0.82,0,1.64,0.13,2.45,0.38
					L366.22,284.09z"/>
				<path d="M378.74,295.08h-6.45v-12.36h6.4v1.25h-4.96v3.82h4.77v1.25h-4.77v4.77h5.02V295.08z"/>
				<path d="M392.17,295.08h-1.8l-3.62-5.61h-1.59v5.61h-1.44v-12.36h3.49c1.17,0,2.1,0.29,2.78,0.85c0.68,0.57,1.02,1.36,1.02,2.38
					c0,0.75-0.25,1.42-0.74,2.01c-0.5,0.59-1.18,0.99-2.05,1.2L392.17,295.08z M385.15,288.22h1.81c0.76,0,1.37-0.21,1.85-0.62
					c0.47-0.41,0.71-0.93,0.71-1.55c0-1.38-0.84-2.07-2.52-2.07h-1.85V288.22z"/>
				<path d="M401.85,295.08h-5.61v-1.25h2.13v-9.85h-2.13v-1.25h5.61v1.25h-2.05v9.85h2.05V295.08z"/>
				<path d="M414.25,295.08h-6.45v-12.36h6.4v1.25h-4.96v3.82h4.77v1.25h-4.77v4.77h5.02V295.08z"/>
				<path d="M425.41,284.09c-0.74-0.25-1.43-0.38-2.09-0.38c-0.75,0-1.36,0.17-1.83,0.51c-0.47,0.34-0.71,0.82-0.71,1.46
					c0,0.75,0.62,1.4,1.85,1.97c0.91,0.42,1.51,0.71,1.81,0.88c0.29,0.16,0.59,0.39,0.9,0.67c0.3,0.29,0.55,0.63,0.73,1.01
					c0.18,0.39,0.28,0.82,0.28,1.31c0,1.2-0.4,2.14-1.21,2.8c-0.81,0.66-1.76,0.99-2.86,0.99c-1.06,0-1.99-0.21-2.79-0.63l0.3-1.23
					c0.94,0.42,1.76,0.64,2.46,0.64c0.82,0,1.47-0.21,1.97-0.63c0.49-0.42,0.74-1,0.74-1.75c0-0.55-0.16-1.01-0.48-1.39
					c-0.32-0.39-0.91-0.77-1.78-1.17c-0.89-0.41-1.46-0.69-1.72-0.83c-0.26-0.15-0.52-0.35-0.77-0.62c-0.26-0.26-0.45-0.56-0.6-0.88
					c-0.14-0.33-0.21-0.68-0.21-1.07c0-1.02,0.37-1.82,1.1-2.39c0.74-0.57,1.67-0.86,2.79-0.86c0.82,0,1.64,0.13,2.45,0.38
					L425.41,284.09z"/>
			</g>
			<g>
				<g>
					<g>
						<path d="M201.86,261.08h-1.38v-10.59l-1.86,5.07h-1.36l-1.87-5.07v10.59H194v-12.36h1.87l2.07,5.63l2.06-5.63h1.86V261.08z"/>
						<path d="M213.26,257.2c0,1.43-0.29,2.48-0.87,3.13c-0.58,0.66-1.46,0.99-2.65,0.99c-2.39,0-3.58-1.36-3.58-4.09v-8.5h1.44
							v8.37c0,1.97,0.71,2.96,2.15,2.96c0.72,0,1.24-0.23,1.58-0.7c0.34-0.46,0.5-1.22,0.5-2.27v-8.35h1.43V257.2z"/>
						<path d="M224.18,250.1c-0.74-0.25-1.43-0.38-2.09-0.38c-0.75,0-1.36,0.17-1.83,0.51c-0.47,0.34-0.71,0.82-0.71,1.46
							c0,0.75,0.62,1.4,1.85,1.97c0.91,0.42,1.51,0.71,1.81,0.88c0.29,0.16,0.59,0.39,0.9,0.67c0.3,0.29,0.55,0.63,0.73,1.01
							c0.18,0.39,0.28,0.82,0.28,1.31c0,1.2-0.4,2.14-1.21,2.8s-1.76,0.99-2.86,0.99c-1.06,0-1.99-0.21-2.79-0.63l0.3-1.23
							c0.94,0.42,1.76,0.64,2.46,0.64c0.82,0,1.47-0.21,1.97-0.63c0.49-0.42,0.74-1,0.74-1.75c0-0.55-0.16-1.01-0.48-1.39
							c-0.32-0.39-0.91-0.77-1.78-1.17c-0.89-0.41-1.46-0.69-1.72-0.83c-0.26-0.15-0.52-0.35-0.77-0.62
							c-0.26-0.26-0.45-0.56-0.6-0.88c-0.14-0.33-0.21-0.68-0.21-1.07c0-1.02,0.37-1.82,1.1-2.39c0.74-0.57,1.67-0.86,2.79-0.86
							c0.82,0,1.64,0.13,2.45,0.38L224.18,250.1z"/>
						<path d="M236.13,261.08h-5.61v-1.25h2.13v-9.85h-2.13v-1.25h5.61v1.25h-2.05v9.85h2.05V261.08z"/>
						<path d="M249.22,260.31c-0.97,0.67-2.09,1.01-3.37,1.01c-1.6,0-2.81-0.55-3.65-1.65c-0.83-1.1-1.25-2.69-1.25-4.77
							c0-2.01,0.4-3.58,1.21-4.71c0.8-1.14,2.03-1.71,3.68-1.71c0.6,0,1.19,0.08,1.77,0.23c0.58,0.15,1.05,0.35,1.41,0.6l-0.47,1.13
							c-0.82-0.47-1.72-0.7-2.71-0.7c-1.14,0-1.98,0.41-2.54,1.24c-0.56,0.82-0.83,2.13-0.83,3.92c0,3.43,1.12,5.15,3.37,5.15
							c0.95,0,1.93-0.29,2.92-0.87L249.22,260.31z"/>
						<path d="M272.9,260.31c-0.97,0.67-2.09,1.01-3.37,1.01c-1.6,0-2.81-0.55-3.65-1.65c-0.83-1.1-1.25-2.69-1.25-4.77
							c0-2.01,0.4-3.58,1.21-4.71c0.8-1.14,2.03-1.71,3.68-1.71c0.6,0,1.19,0.08,1.77,0.23c0.58,0.15,1.05,0.35,1.41,0.6l-0.47,1.13
							c-0.82-0.47-1.72-0.7-2.71-0.7c-1.14,0-1.98,0.41-2.54,1.24c-0.56,0.82-0.83,2.13-0.83,3.92c0,3.43,1.12,5.15,3.37,5.15
							c0.95,0,1.93-0.29,2.92-0.87L272.9,260.31z"/>
						<path d="M280.71,248.49c1.38,0,2.44,0.55,3.16,1.64c0.73,1.1,1.09,2.69,1.09,4.78c0,2.08-0.36,3.67-1.09,4.77
							c-0.72,1.1-1.78,1.65-3.17,1.65c-1.38,0-2.43-0.55-3.16-1.64c-0.73-1.1-1.09-2.69-1.09-4.77c0-2.08,0.36-3.67,1.08-4.77
							C278.28,249.04,279.33,248.49,280.71,248.49z M280.71,260.06c1.82,0,2.73-1.72,2.73-5.15c0-3.44-0.91-5.16-2.73-5.16
							c-0.89,0-1.56,0.45-2.03,1.33c-0.46,0.89-0.7,2.17-0.7,3.82c0,1.68,0.23,2.95,0.69,3.83
							C279.14,259.62,279.82,260.06,280.71,260.06z"/>
						<path d="M296.55,261.08h-1.38v-10.59l-1.86,5.07h-1.36l-1.87-5.07v10.59h-1.38v-12.36h1.87l2.07,5.63l2.06-5.63h1.86V261.08z"
							/>
						<path d="M301.27,248.73h3.13c1.19,0,2.13,0.3,2.85,0.9c0.71,0.59,1.07,1.42,1.07,2.46c0,1.05-0.35,1.89-1.06,2.52
							c-0.71,0.63-1.64,0.94-2.79,0.94h-1.76v5.54h-1.44V248.73z M302.71,254.29h1.56c1.69,0,2.53-0.71,2.53-2.12
							c0-0.65-0.23-1.18-0.69-1.59c-0.46-0.4-1.05-0.61-1.77-0.61h-1.63V254.29z"/>
						<path d="M316.22,248.49c1.38,0,2.44,0.55,3.16,1.64c0.73,1.1,1.09,2.69,1.09,4.78c0,2.08-0.36,3.67-1.09,4.77
							c-0.72,1.1-1.78,1.65-3.17,1.65c-1.38,0-2.43-0.55-3.16-1.64c-0.73-1.1-1.09-2.69-1.09-4.77c0-2.08,0.36-3.67,1.08-4.77
							C313.79,249.04,314.84,248.49,316.22,248.49z M316.22,260.06c1.82,0,2.73-1.72,2.73-5.15c0-3.44-0.91-5.16-2.73-5.16
							c-0.89,0-1.56,0.45-2.03,1.33c-0.46,0.89-0.7,2.17-0.7,3.82c0,1.68,0.23,2.95,0.69,3.83
							C314.65,259.62,315.33,260.06,316.22,260.06z"/>
						<path d="M330.71,250.1c-0.74-0.25-1.43-0.38-2.09-0.38c-0.75,0-1.36,0.17-1.83,0.51c-0.47,0.34-0.71,0.82-0.71,1.46
							c0,0.75,0.62,1.4,1.85,1.97c0.91,0.42,1.51,0.71,1.81,0.88c0.29,0.16,0.59,0.39,0.9,0.67c0.3,0.29,0.55,0.63,0.73,1.01
							c0.18,0.39,0.28,0.82,0.28,1.31c0,1.2-0.4,2.14-1.21,2.8s-1.76,0.99-2.86,0.99c-1.06,0-1.99-0.21-2.79-0.63l0.3-1.23
							c0.94,0.42,1.76,0.64,2.46,0.64c0.82,0,1.47-0.21,1.97-0.63c0.49-0.42,0.74-1,0.74-1.75c0-0.55-0.16-1.01-0.48-1.39
							c-0.32-0.39-0.91-0.77-1.78-1.17c-0.89-0.41-1.46-0.69-1.72-0.83c-0.26-0.15-0.52-0.35-0.77-0.62
							c-0.26-0.26-0.45-0.56-0.6-0.88c-0.14-0.33-0.21-0.68-0.21-1.07c0-1.02,0.37-1.82,1.1-2.39c0.74-0.57,1.67-0.86,2.79-0.86
							c0.82,0,1.64,0.13,2.45,0.38L330.71,250.1z"/>
						<path d="M342.66,261.08h-5.61v-1.25h2.13v-9.85h-2.13v-1.25h5.61v1.25h-2.05v9.85h2.05V261.08z"/>
						<path d="M356.3,249.89h-3.81v11.19h-1.43v-11.19h-3.83v-1.16h9.06V249.89z"/>
						<path d="M366.34,261.08h-5.61v-1.25h2.13v-9.85h-2.13v-1.25h5.61v1.25h-2.05v9.85h2.05V261.08z"/>
						<path d="M375.41,248.49c1.38,0,2.44,0.55,3.16,1.64c0.73,1.1,1.09,2.69,1.09,4.78c0,2.08-0.36,3.67-1.09,4.77
							c-0.72,1.1-1.78,1.65-3.17,1.65c-1.38,0-2.43-0.55-3.16-1.64c-0.73-1.1-1.09-2.69-1.09-4.77c0-2.08,0.36-3.67,1.08-4.77
							C372.97,249.04,374.02,248.49,375.41,248.49z M375.41,260.06c1.82,0,2.73-1.72,2.73-5.15c0-3.44-0.91-5.16-2.73-5.16
							c-0.89,0-1.56,0.45-2.03,1.33c-0.46,0.89-0.7,2.17-0.7,3.82c0,1.68,0.23,2.95,0.69,3.83
							C373.84,259.62,374.51,260.06,375.41,260.06z"/>
						<path d="M390.99,261.08h-1.59l-4.43-9.75v9.75h-1.43v-12.36h1.6l4.45,9.67v-9.67h1.41V261.08z"/>
					</g>
				</g>
			</g>
		</g>
		<g>
			<polygon points="534.64,179.9 539.47,179.9 542.85,172.93 538.06,172.93 			"/>
		</g>
	</g>
</g>
</svg>
