<svg xmlns="http://www.w3.org/2000/svg" viewBox="0 0 585.14 335.24" style="enable-background:new 0 0 585.14 335.24" xml:space="preserve"><g/><path d="m337.85 120.76-12.17 18.29c-.21.32-.58.52-.96.52H249.6c-.92 0-1.47-1.02-.96-1.79l11.32-17.01h77.89zM235.11 74.58l24.85 46.18 12.13-18.23c.24-.35.26-.81.06-1.18L248.2 56.86c-.41-.77-1.5-.82-1.98-.09L235.16 73.4c-.23.35-.25.8-.05 1.18zm38.95 0 24.71 45.93c.06.12.23.12.3.01l11.96-17.98c.24-.35.26-.81.06-1.18l-23.93-44.49c-.41-.77-1.5-.82-1.98-.09L274.11 73.4c-.23.35-.25.8-.05 1.18zm38.95 0 24.85 46.18 12.13-18.23c.24-.35.26-.81.06-1.18L326.1 56.86c-.41-.77-1.5-.82-1.98-.09L313.06 73.4c-.23.35-.25.8-.05 1.18zm-53.33-22.07c.7-1.01 1.53-1.92 2.39-2.8.86-.88 1.79-1.69 2.76-2.46a34.53 34.53 0 0 1 13.46-6.49c2.48-.57 5.03-.85 7.59-.85 1.28-.01 2.55.12 3.82.22 1.26.21 2.53.37 3.76.7 1.24.27 2.44.69 3.64 1.09.59.23 1.17.47 1.75.71l.87.37.84.42c4.49 2.25 8.45 5.32 11.59 9.07-4.34-2.25-8.59-4.29-12.97-5.72l-.81-.28-.83-.23-1.65-.47c-1.12-.22-2.21-.54-3.33-.69-2.22-.4-4.46-.61-6.7-.6-4.48-.03-8.97.71-13.35 2.12-2.19.69-4.35 1.55-6.49 2.53-2.14 1-4.24 2.1-6.34 3.36zM43.94 189.76v3.51h7.94v5.8h-7.94v3.51h14.07v5.8H37.5v-24.42h20.51v5.8H43.94zm48.58 6.26v.3c0 3.54-1.16 6.44-3.49 8.69-2.33 2.25-5.35 3.37-9.05 3.37H71.4v-24.42h8.58c3.7 0 6.72 1.13 9.05 3.37 2.33 2.26 3.49 5.15 3.49 8.69zm-14.68 6.56h2.14c1.79 0 3.24-.59 4.35-1.75 1.11-1.17 1.66-2.67 1.66-4.5v-.3c0-1.83-.56-3.33-1.66-4.5-1.11-1.17-2.56-1.75-4.35-1.75h-2.14v12.8zm50.18-18.62v14.62c0 2.99-1 5.45-3.01 7.38-2 1.94-4.78 2.9-8.32 2.9s-6.31-.97-8.3-2.9c-1.99-1.93-2.99-4.39-2.99-7.38v-14.62h6.38v13.52c0 1.55.45 2.81 1.34 3.8.9.99 2.1 1.48 3.6 1.48 1.51 0 2.7-.5 3.59-1.48.88-.99 1.33-2.25 1.33-3.8l-.06-13.52h6.44zm28.88 20.49h-10.13l-1.43 3.94h-6.56l9.1-24.42h7.94l9.1 24.42h-6.53l-1.49-3.94zm-8.09-5.8h6.01l-2.99-9.19-3.02 9.19zm50.28-6.96c0 1.4-.32 2.69-.95 3.85a6.825 6.825 0 0 1-2.66 2.72l3.54 10.13h-6.84l-2.99-9.13h-5.68v9.13h-6.44v-24.42h14.44c2.26 0 4.08.75 5.48 2.24 1.41 1.49 2.1 3.32 2.1 5.48zm-15.56 1.8h7.78c.57.02 1.03-.13 1.39-.46.36-.33.53-.77.53-1.34 0-.57-.18-1.03-.55-1.39-.37-.35-.82-.53-1.37-.53h-7.78v3.72zm50.49 2.53v.3c0 3.54-1.16 6.44-3.49 8.69-2.33 2.25-5.35 3.37-9.05 3.37h-8.58v-24.42h8.58c3.7 0 6.72 1.13 9.05 3.37 2.32 2.26 3.49 5.15 3.49 8.69zm-14.68 6.56h2.14c1.79 0 3.24-.59 4.35-1.75 1.11-1.17 1.66-2.67 1.66-4.5v-.3c0-1.83-.56-3.33-1.66-4.5-1.11-1.17-2.56-1.75-4.35-1.75h-2.14v12.8zm39.73 6.32c-3.7 0-6.78-1.22-9.23-3.67-2.45-2.44-3.68-5.46-3.68-9.06s1.23-6.62 3.68-9.06c2.45-2.44 5.53-3.67 9.23-3.67 3.72 0 6.81 1.22 9.26 3.67 2.45 2.44 3.68 5.46 3.68 9.06s-1.23 6.62-3.68 9.06c-2.45 2.45-5.54 3.67-9.26 3.67zm-4.5-8.04c1.23 1.29 2.73 1.94 4.5 1.94s3.28-.64 4.52-1.94c1.24-1.29 1.86-2.85 1.86-4.68 0-1.81-.62-3.37-1.86-4.67-1.24-1.3-2.75-1.95-4.52-1.95-1.77 0-3.27.64-4.5 1.92-1.23 1.28-1.85 2.85-1.85 4.7 0 1.83.61 3.39 1.85 4.68zm73.58-16.9v24.42h-6.44v-9.31h-9.06v9.31h-6.44v-24.42h6.44v9.31h9.06v-9.31h6.44zm21.22 0v24.42h-6.44v-24.42h6.44zm37.94 0v24.42h-5.55l-9.92-12.39-1.25-1.92v14.32h-6.44v-24.42h5.49l10.26 13.15.98 1.53v-14.68h6.43zm26.29 18.78c1.75 0 3.25-.67 4.49-2.02l4.76 4.25a12.628 12.628 0 0 1-4.14 2.88c-1.6.7-3.29 1.05-5.08 1.05-3.6 0-6.65-1.24-9.14-3.71-2.49-2.47-3.74-5.48-3.74-9.02s1.25-6.55 3.74-9.02c2.49-2.47 5.54-3.71 9.14-3.71 1.79 0 3.49.35 5.08 1.05 1.6.7 2.98 1.66 4.14 2.88l-4.79 4.21c-1.22-1.32-2.71-1.98-4.46-1.98-1.81 0-3.31.63-4.5 1.89s-1.79 2.82-1.79 4.67.59 3.41 1.79 4.67 2.69 1.91 4.5 1.91zm38.01 1.71h-10.13l-1.43 3.94h-6.56l9.1-24.42h7.94l9.1 24.42h-6.53l-1.49-3.94zm-8.09-5.8h6.01l-2.99-9.19-3.02 9.19zm28.28-14.69h14.44c2.26 0 4.08.75 5.48 2.24 1.39 1.5 2.09 3.32 2.09 5.48 0 2.14-.7 3.94-2.09 5.42s-3.22 2.21-5.48 2.21l-8-.03v9.1h-6.44v-24.42zm6.44 9.53h7.78c.57.02 1.03-.13 1.39-.46.36-.33.53-.77.53-1.34 0-.57-.18-1.03-.55-1.39-.37-.35-.82-.53-1.37-.53h-7.78v3.72zm34.13-9.53v24.42h-6.44v-24.42h6.44zm21.2 5.8v3.51h7.94v5.8h-7.94v3.51h14.07v5.8h-20.51v-24.42h20.51v5.8h-14.07zM166.34 294.21c-1.01.74-2.13 1.11-3.35 1.11-1.6 0-2.82-.54-3.65-1.63-.83-1.09-1.24-2.68-1.24-4.78 0-2.02.4-3.6 1.2-4.73.8-1.13 2.03-1.69 3.69-1.69.6 0 1.19.08 1.77.23.58.15 1.05.35 1.41.6l-.47 1.13c-.82-.47-1.72-.7-2.71-.7-1.13 0-1.98.41-2.54 1.24-.56.83-.83 2.13-.83 3.91 0 3.43 1.12 5.15 3.37 5.15.85 0 1.49-.18 1.92-.53v-3.05h-2.22v-1.24h3.66v4.98zm12.78.87h-1.51l-1.37-4.33h-4.05l-1.38 4.33h-1.49l4.04-12.36h1.72l4.04 12.36zm-3.29-5.57-1.62-5.12-1.61 5.12h3.23zm14.19 5.57h-1.38v-10.59l-1.86 5.07h-1.36l-1.87-5.07v10.59h-1.38v-12.36h1.87l2.07 5.63 2.06-5.63h1.86v12.36zm11.17 0h-6.45v-12.36h6.4v1.25h-4.96v3.82h4.77v1.25h-4.77v4.77h5.02v1.27zm11.15-10.99c-.74-.25-1.43-.38-2.09-.38-.75 0-1.36.17-1.83.51-.47.34-.71.82-.71 1.46 0 .75.62 1.4 1.85 1.97.91.42 1.51.71 1.81.88.29.16.59.39.9.67.3.29.55.63.73 1.01.18.39.28.82.28 1.31 0 1.2-.4 2.14-1.21 2.8s-1.76.99-2.86.99c-1.06 0-1.99-.21-2.79-.63l.3-1.23c.94.42 1.76.64 2.46.64.82 0 1.47-.21 1.97-.63.49-.42.74-1 .74-1.75 0-.55-.16-1.01-.48-1.39-.32-.39-.91-.77-1.78-1.17-.89-.41-1.46-.69-1.72-.83-.26-.15-.52-.35-.77-.62-.26-.26-.45-.56-.6-.88-.14-.33-.21-.68-.21-1.07 0-1.02.37-1.82 1.1-2.39.74-.57 1.67-.86 2.79-.86.82 0 1.64.13 2.45.38l-.33 1.21zm24.2 9.11-6.55-3.93v-1.05l6.55-3.9v1.26l-5.25 3.21 5.25 3.12v1.29zm24.5 1.88h-1.38v-10.59l-1.86 5.07h-1.36l-1.87-5.07v10.59h-1.38v-12.36h1.87l2.07 5.63 2.06-5.63h1.86v12.36zm7.83-12.59c1.38 0 2.44.55 3.16 1.64.73 1.1 1.09 2.69 1.09 4.78 0 2.08-.36 3.67-1.09 4.77-.72 1.1-1.78 1.65-3.17 1.65-1.38 0-2.43-.55-3.16-1.64-.73-1.1-1.09-2.69-1.09-4.77s.36-3.67 1.08-4.77c.75-1.11 1.8-1.66 3.18-1.66zm0 11.57c1.82 0 2.73-1.72 2.73-5.15 0-3.44-.91-5.16-2.73-5.16-.89 0-1.56.45-2.03 1.33-.46.89-.7 2.17-.7 3.82 0 1.68.23 2.95.69 3.83.47.89 1.15 1.33 2.04 1.33zm16.74-11.33-4.03 12.36h-1.72l-4.04-12.36h1.51l3.39 10.69 3.41-10.69h1.48zm9.71 12.35h-5.61v-1.25h2.13v-9.85h-2.13v-1.25h5.61v1.25h-2.05v9.85h2.05v1.25zm12.4 0h-6.45v-12.36h6.4v1.25h-4.96v3.82h4.77v1.25h-4.77v4.77h5.02v1.27zm11.16-10.99c-.74-.25-1.43-.38-2.09-.38-.75 0-1.36.17-1.83.51-.47.34-.71.82-.71 1.46 0 .75.62 1.4 1.85 1.97.91.42 1.51.71 1.81.88.29.16.59.39.9.67.3.29.55.63.73 1.01.18.39.28.82.28 1.31 0 1.2-.4 2.14-1.21 2.8-.81.66-1.76.99-2.86.99-1.06 0-1.99-.21-2.79-.63l.3-1.23c.94.42 1.76.64 2.46.64.82 0 1.47-.21 1.97-.63.49-.42.74-1 .74-1.75 0-.55-.16-1.01-.48-1.39-.32-.39-.91-.77-1.78-1.17-.89-.41-1.46-.69-1.72-.83-.26-.15-.52-.35-.77-.62-.26-.26-.45-.56-.6-.88-.14-.33-.21-.68-.21-1.07 0-1.02.37-1.82 1.1-2.39.74-.57 1.67-.86 2.79-.86.82 0 1.64.13 2.45.38l-.33 1.21zm24.19 9.11-6.55-3.93v-1.05l6.55-3.9v1.26l-5.25 3.21 5.25 3.12v1.29zm23.15-9.11c-.74-.25-1.43-.38-2.09-.38-.75 0-1.36.17-1.83.51-.47.34-.71.82-.71 1.46 0 .75.62 1.4 1.85 1.97.91.42 1.51.71 1.81.88.29.16.59.39.9.67.3.29.55.63.73 1.01.18.39.28.82.28 1.31 0 1.2-.4 2.14-1.21 2.8-.81.66-1.76.99-2.86.99-1.06 0-1.99-.21-2.79-.63l.3-1.23c.94.42 1.76.64 2.46.64.82 0 1.47-.21 1.97-.63.49-.42.74-1 .74-1.75 0-.55-.16-1.01-.48-1.39-.32-.39-.91-.77-1.78-1.17-.89-.41-1.46-.69-1.72-.83-.26-.15-.52-.35-.77-.62-.26-.26-.45-.56-.6-.88-.14-.33-.21-.68-.21-1.07 0-1.02.37-1.82 1.1-2.39.74-.57 1.67-.86 2.79-.86.82 0 1.64.13 2.45.38l-.33 1.21zm12.52 10.99h-6.45v-12.36h6.4v1.25h-4.96v3.82h4.77v1.25h-4.77v4.77h5.02v1.27zm13.43 0h-1.8l-3.62-5.61h-1.59v5.61h-1.44v-12.36h3.49c1.17 0 2.1.29 2.78.85.68.57 1.02 1.36 1.02 2.38 0 .75-.25 1.42-.74 2.01-.5.59-1.18.99-2.05 1.2l3.95 5.92zm-7.02-6.86h1.81c.76 0 1.37-.21 1.85-.62.47-.41.71-.93.71-1.55 0-1.38-.84-2.07-2.52-2.07h-1.85v4.24zm16.7 6.86h-5.61v-1.25h2.13v-9.85h-2.13v-1.25h5.61v1.25h-2.05v9.85h2.05v1.25zm12.4 0h-6.45v-12.36h6.4v1.25h-4.96v3.82h4.77v1.25h-4.77v4.77h5.02v1.27zm11.16-10.99c-.74-.25-1.43-.38-2.09-.38-.75 0-1.36.17-1.83.51-.47.34-.71.82-.71 1.46 0 .75.62 1.4 1.85 1.97.91.42 1.51.71 1.81.88.29.16.59.39.9.67.3.29.55.63.73 1.01.18.39.28.82.28 1.31 0 1.2-.4 2.14-1.21 2.8-.81.66-1.76.99-2.86.99-1.06 0-1.99-.21-2.79-.63l.3-1.23c.94.42 1.76.64 2.46.64.82 0 1.47-.21 1.97-.63.49-.42.74-1 .74-1.75 0-.55-.16-1.01-.48-1.39-.32-.39-.91-.77-1.78-1.17-.89-.41-1.46-.69-1.72-.83-.26-.15-.52-.35-.77-.62-.26-.26-.45-.56-.6-.88-.14-.33-.21-.68-.21-1.07 0-1.02.37-1.82 1.1-2.39.74-.57 1.67-.86 2.79-.86.82 0 1.64.13 2.45.38l-.33 1.21zm-223.55-23.01h-1.38v-10.59l-1.86 5.07h-1.36l-1.87-5.07v10.59H194v-12.36h1.87l2.07 5.63 2.06-5.63h1.86v12.36zm11.4-3.88c0 1.43-.29 2.48-.87 3.13-.58.66-1.46.99-2.65.99-2.39 0-3.58-1.36-3.58-4.09v-8.5h1.44v8.37c0 1.97.71 2.96 2.15 2.96.72 0 1.24-.23 1.58-.7.34-.46.5-1.22.5-2.27v-8.35h1.43v8.46zm10.92-7.1c-.74-.25-1.43-.38-2.09-.38-.75 0-1.36.17-1.83.51-.47.34-.71.82-.71 1.46 0 .75.62 1.4 1.85 1.97.91.42 1.51.71 1.81.88.29.16.59.39.9.67.3.29.55.63.73 1.01.18.39.28.82.28 1.31 0 1.2-.4 2.14-1.21 2.8s-1.76.99-2.86.99c-1.06 0-1.99-.21-2.79-.63l.3-1.23c.94.42 1.76.64 2.46.64.82 0 1.47-.21 1.97-.63.49-.42.74-1 .74-1.75 0-.55-.16-1.01-.48-1.39-.32-.39-.91-.77-1.78-1.17-.89-.41-1.46-.69-1.72-.83-.26-.15-.52-.35-.77-.62-.26-.26-.45-.56-.6-.88-.14-.33-.21-.68-.21-1.07 0-1.02.37-1.82 1.1-2.39.74-.57 1.67-.86 2.79-.86.82 0 1.64.13 2.45.38l-.33 1.21zm11.95 10.98h-5.61v-1.25h2.13v-9.85h-2.13v-1.25h5.61v1.25h-2.05v9.85h2.05v1.25zm13.09-.77c-.97.67-2.09 1.01-3.37 1.01-1.6 0-2.81-.55-3.65-1.65-.83-1.1-1.25-2.69-1.25-4.77 0-2.01.4-3.58 1.21-4.71.8-1.14 2.03-1.71 3.68-1.71.6 0 1.19.08 1.77.23.58.15 1.05.35 1.41.6l-.47 1.13c-.82-.47-1.72-.7-2.71-.7-1.14 0-1.98.41-2.54 1.24-.56.82-.83 2.13-.83 3.92 0 3.43 1.12 5.15 3.37 5.15.95 0 1.93-.29 2.92-.87l.46 1.13zm23.68 0c-.97.67-2.09 1.01-3.37 1.01-1.6 0-2.81-.55-3.65-1.65-.83-1.1-1.25-2.69-1.25-4.77 0-2.01.4-3.58 1.21-4.71.8-1.14 2.03-1.71 3.68-1.71.6 0 1.19.08 1.77.23.58.15 1.05.35 1.41.6l-.47 1.13c-.82-.47-1.72-.7-2.71-.7-1.14 0-1.98.41-2.54 1.24-.56.82-.83 2.13-.83 3.92 0 3.43 1.12 5.15 3.37 5.15.95 0 1.93-.29 2.92-.87l.46 1.13zm7.81-11.82c1.38 0 2.44.55 3.16 1.64.73 1.1 1.09 2.69 1.09 4.78 0 2.08-.36 3.67-1.09 4.77-.72 1.1-1.78 1.65-3.17 1.65-1.38 0-2.43-.55-3.16-1.64-.73-1.1-1.09-2.69-1.09-4.77 0-2.08.36-3.67 1.08-4.77.75-1.11 1.8-1.66 3.18-1.66zm0 11.57c1.82 0 2.73-1.72 2.73-5.15 0-3.44-.91-5.16-2.73-5.16-.89 0-1.56.45-2.03 1.33-.46.89-.7 2.17-.7 3.82 0 1.68.23 2.95.69 3.83.47.89 1.15 1.33 2.04 1.33zm15.84 1.02h-1.38v-10.59l-1.86 5.07h-1.36l-1.87-5.07v10.59h-1.38v-12.36h1.87l2.07 5.63 2.06-5.63h1.86v12.36zm4.72-12.35h3.13c1.19 0 2.13.3 2.85.9.71.59 1.07 1.42 1.07 2.46 0 1.05-.35 1.89-1.06 2.52-.71.63-1.64.94-2.79.94h-1.76v5.54h-1.44v-12.36zm1.44 5.56h1.56c1.69 0 2.53-.71 2.53-2.12 0-.65-.23-1.18-.69-1.59-.46-.4-1.05-.61-1.77-.61h-1.63v4.32zm13.51-5.8c1.38 0 2.44.55 3.16 1.64.73 1.1 1.09 2.69 1.09 4.78 0 2.08-.36 3.67-1.09 4.77-.72 1.1-1.78 1.65-3.17 1.65-1.38 0-2.43-.55-3.16-1.64-.73-1.1-1.09-2.69-1.09-4.77 0-2.08.36-3.67 1.08-4.77.75-1.11 1.8-1.66 3.18-1.66zm0 11.57c1.82 0 2.73-1.72 2.73-5.15 0-3.44-.91-5.16-2.73-5.16-.89 0-1.56.45-2.03 1.33-.46.89-.7 2.17-.7 3.82 0 1.68.23 2.95.69 3.83.47.89 1.15 1.33 2.04 1.33zm14.49-9.96c-.74-.25-1.43-.38-2.09-.38-.75 0-1.36.17-1.83.51-.47.34-.71.82-.71 1.46 0 .75.62 1.4 1.85 1.97.91.42 1.51.71 1.81.88.29.16.59.39.9.67.3.29.55.63.73 1.01.18.39.28.82.28 1.31 0 1.2-.4 2.14-1.21 2.8s-1.76.99-2.86.99c-1.06 0-1.99-.21-2.79-.63l.3-1.23c.94.42 1.76.64 2.46.64.82 0 1.47-.21 1.97-.63.49-.42.74-1 .74-1.75 0-.55-.16-1.01-.48-1.39-.32-.39-.91-.77-1.78-1.17-.89-.41-1.46-.69-1.72-.83-.26-.15-.52-.35-.77-.62-.26-.26-.45-.56-.6-.88-.14-.33-.21-.68-.21-1.07 0-1.02.37-1.82 1.1-2.39.74-.57 1.67-.86 2.79-.86.82 0 1.64.13 2.45.38l-.33 1.21zm11.95 10.98h-5.61v-1.25h2.13v-9.85h-2.13v-1.25h5.61v1.25h-2.05v9.85h2.05v1.25zm13.64-11.19h-3.81v11.19h-1.43v-11.19h-3.83v-1.16h9.06v1.16zm10.04 11.19h-5.61v-1.25h2.13v-9.85h-2.13v-1.25h5.61v1.25h-2.05v9.85h2.05v1.25zm9.07-12.59c1.38 0 2.44.55 3.16 1.64.73 1.1 1.09 2.69 1.09 4.78 0 2.08-.36 3.67-1.09 4.77-.72 1.1-1.78 1.65-3.17 1.65-1.38 0-2.43-.55-3.16-1.64-.73-1.1-1.09-2.69-1.09-4.77 0-2.08.36-3.67 1.08-4.77.74-1.11 1.79-1.66 3.18-1.66zm0 11.57c1.82 0 2.73-1.72 2.73-5.15 0-3.44-.91-5.16-2.73-5.16-.89 0-1.56.45-2.03 1.33-.46.89-.7 2.17-.7 3.82 0 1.68.23 2.95.69 3.83.47.89 1.14 1.33 2.04 1.33zm15.58 1.02h-1.59l-4.43-9.75v9.75h-1.43v-12.36h1.6l4.45 9.67v-9.67H391v12.36zm143.65-81.18h4.83l3.38-6.97h-4.79z"/></svg>
