<?xml version="1.0" encoding="utf-8"?>
<!-- Generator: Adobe Illustrator 24.1.0, SVG Export Plug-In . SVG Version: 6.00 Build 0)  -->
<svg version="1.1" id="Capa_2" xmlns="http://www.w3.org/2000/svg" xmlns:xlink="http://www.w3.org/1999/xlink" x="0px" y="0px"
	 viewBox="0 0 79.36 79.36" style="enable-background:new 0 0 79.36 79.36;" xml:space="preserve">
<style type="text/css">
	.st0{fill:#545454;}
	.st1{fill:none;stroke:#FFFFFF;stroke-width:0.75;stroke-miterlimit:10;}
	.st2{fill:#FFFFFF;}
	.st3{fill:none;stroke:#000000;stroke-miterlimit:10;}
</style>
<g>
	<g>
		<path class="st0" d="M27.57,39.87v-0.39c19.03-1.82,19.3-13.92,19.3-13.92h-9.4c0,0,0,11.13-10.99,13.57v0v1.09v0
			C37.47,42.66,37.47,53.8,37.47,53.8h9.4C46.87,53.8,46.6,41.7,27.57,39.87z"/>
		<g>
			<path class="st0" d="M39.68,79.36C17.8,79.36,0,61.56,0,39.68S17.8,0,39.68,0c21.88,0,39.68,17.8,39.68,39.68
				C79.36,61.56,61.56,79.36,39.68,79.36z M39.68,0.75c-21.46,0-38.93,17.46-38.93,38.93s17.46,38.93,38.93,38.93
				s38.93-17.46,38.93-38.93S61.14,0.75,39.68,0.75z"/>
		</g>
	</g>
</g>
</svg>
