<svg version="1.1" id="Capa_2" xmlns="http://www.w3.org/2000/svg" x="0" y="0" viewBox="0 0 92.73 92.73" style="enable-background:new 0 0 92.73 92.73" xml:space="preserve"><style>.st2{fill:#fff}</style><path class="st2" d="M32.26 46.59v-.46c22.18-2.12 22.49-16.22 22.49-16.22H43.79s0 12.97-12.8 15.81V47c12.8 2.84 12.8 15.81 12.8 15.81h10.95c.01.01-.3-14.09-22.48-16.22z"/><path class="st2" d="M46.37 92.66C20.84 92.66.08 71.89.08 46.37S20.84.07 46.37.07s46.29 20.77 46.29 46.29-20.77 46.3-46.29 46.3zm0-91.59C21.4 1.07 1.08 21.39 1.08 46.36S21.4 91.65 46.37 91.65s45.29-20.32 45.29-45.29S71.34 1.07 46.37 1.07z"/></svg>
