<svg version="1.1" id="Capa_2" xmlns="http://www.w3.org/2000/svg" x="0" y="0" viewBox="0 0 79.36 79.36" style="enable-background:new 0 0 79.36 79.36" xml:space="preserve"><style>.st0{fill:#545454}</style><path class="st0" d="M27.57 39.87v-.39c19.03-1.82 19.3-13.92 19.3-13.92h-9.4s0 11.13-10.99 13.57v1.09C37.47 42.66 37.47 53.8 37.47 53.8h9.4s-.27-12.1-19.3-13.93z"/><path class="st0" d="M39.68 79.36C17.8 79.36 0 61.56 0 39.68S17.8 0 39.68 0s39.68 17.8 39.68 39.68-17.8 39.68-39.68 39.68zm0-78.61C18.22.75.75 18.21.75 39.68s17.46 38.93 38.93 38.93 38.93-17.46 38.93-38.93S61.14.75 39.68.75z"/></svg>
