<?xml version="1.0" encoding="utf-8"?>
<!-- Generator: Adobe Illustrator 24.1.0, SVG Export Plug-In . SVG Version: 6.00 Build 0)  -->
<svg version="1.1" id="Capa_2" xmlns="http://www.w3.org/2000/svg" xmlns:xlink="http://www.w3.org/1999/xlink" x="0px" y="0px"
	 viewBox="0 0 92.73 92.73" style="enable-background:new 0 0 92.73 92.73;" xml:space="preserve">
<style type="text/css">
	.st0{fill:none;stroke:#FFFFFF;stroke-width:0.75;stroke-miterlimit:10;}
	.st1{fill:#545454;}
	.st2{fill:#FFFFFF;}
	.st3{fill:none;stroke:#000000;stroke-miterlimit:10;}
</style>
<g>
	<g>
		<path class="st2" d="M32.26,46.59v-0.46c22.18-2.12,22.49-16.22,22.49-16.22H43.79c0,0,0,12.97-12.8,15.81v0V47v0
			c12.8,2.84,12.8,15.81,12.8,15.81h10.95C54.75,62.82,54.44,48.72,32.26,46.59z"/>
	</g>
	<g>
		<path class="st2" d="M46.37,92.66c-25.53,0-46.29-20.77-46.29-46.29S20.84,0.07,46.37,0.07s46.29,20.77,46.29,46.29
			S71.89,92.66,46.37,92.66z M46.37,1.07c-24.97,0-45.29,20.32-45.29,45.29s20.32,45.29,45.29,45.29s45.29-20.32,45.29-45.29
			S71.34,1.07,46.37,1.07z"/>
	</g>
</g>
</svg>
