<?xml version="1.0" encoding="utf-8"?>
<!-- Generator: Adobe Illustrator 24.1.0, SVG Export Plug-In . SVG Version: 6.00 Build 0)  -->
<svg version="1.1" id="Capa_2" xmlns="http://www.w3.org/2000/svg" xmlns:xlink="http://www.w3.org/1999/xlink" x="0px" y="0px"
	 viewBox="0 0 166.85 166.85" style="enable-background:new 0 0 166.85 166.85;" xml:space="preserve">
<style type="text/css">
	.st0{fill:#545454;}
	.st1{fill:#FFFFFF;}
	.st2{fill:none;stroke:#FFFFFF;stroke-width:0.75;stroke-miterlimit:10;}
	.st3{fill:none;stroke:#000000;stroke-width:2.001;stroke-miterlimit:10;}
	.st4{fill:none;stroke:#000000;stroke-miterlimit:10;}
</style>
<g>
	<g>
		<circle class="st1" cx="83.42" cy="83.42" r="83.05"/>
	</g>
	<g>
		<path d="M17.96,68.41l0.98-3.44c0.37-1.3,1.01-2.24,1.92-2.82c0.91-0.58,1.97-0.7,3.18-0.36c1.22,0.35,2.08,1.01,2.58,2
			c0.5,0.98,0.58,2.11,0.22,3.37l-0.55,1.93l6.41,1.83l-0.45,1.57L17.96,68.41z M24.84,68.68l0.49-1.71
			c0.53-1.85-0.02-3.01-1.66-3.47c-0.76-0.22-1.44-0.14-2.05,0.23s-1.03,0.95-1.25,1.74l-0.51,1.78L24.84,68.68z"/>
		<path d="M40.71,53.14l-3.94,6.57l-12.75-7.64l0.84-1.4l11.46,6.87l3.1-5.17L40.71,53.14z"/>
		<path d="M51.05,42.09l-1.23,1.2l-4.75-2.64l-3.31,3.23l2.5,4.83l-1.21,1.18l-7.08-13.86l1.41-1.37L51.05,42.09z M43.69,39.9
			l-5.62-3.12l2.98,5.69L43.69,39.9z"/>
		<path d="M55.15,22.38l0.32,9.57l3.12,5.55l-1.42,0.8l-3.11-5.55l-8-5.26l1.61-0.9l6.21,4.19l-0.33-7.48L55.15,22.38z"/>
		<path d="M89.46,31.28l-2.05-0.02l-4.08-6.79l-1.82-0.01l-0.05,6.75l-1.64-0.01l0.12-14.86l3.98,0.03
			c1.34,0.01,2.39,0.36,3.16,1.05s1.15,1.65,1.14,2.87c-0.01,0.91-0.3,1.71-0.87,2.41s-1.35,1.17-2.35,1.42L89.46,31.28z
			 M81.54,22.95l2.07,0.02c0.87,0.01,1.57-0.23,2.11-0.73s0.82-1.11,0.82-1.86c0.01-1.66-0.94-2.49-2.85-2.51l-2.11-0.02
			L81.54,22.95z"/>
		<path d="M100.93,34.1l-7.09-1.95l3.94-14.33l7.03,1.93l-0.4,1.45l-5.46-1.5l-1.22,4.44l5.25,1.44l-0.4,1.45l-5.25-1.44l-1.52,5.54
			l5.51,1.52L100.93,34.1z"/>
		<path d="M113.02,40.26l-6.35-3.72l7.51-12.82l6.29,3.69l-0.76,1.3l-4.88-2.86l-2.33,3.97l4.69,2.75l-0.76,1.3l-4.69-2.75
			l-2.9,4.95l4.93,2.89L113.02,40.26z"/>
		<path d="M123.35,49.55l-5.41-5.43l10.54-10.48l1.15,1.16l-9.47,9.42l4.25,4.27L123.35,49.55z"/>
		<path d="M141.63,71.97l-6.5-5.99l1.5-0.4l5.18,4.82l2.18-6.78l1.47-0.39l-2.6,8.42L141.63,71.97z"/>
		<path d="M149.18,97.11l-0.91,3.45c-0.34,1.31-0.97,2.26-1.87,2.86c-0.9,0.6-1.96,0.74-3.17,0.42c-1.22-0.32-2.1-0.97-2.62-1.95
			s-0.62-2.1-0.28-3.36l0.51-1.94l-6.45-1.7l0.42-1.58L149.18,97.11z M142.29,96.98l-0.45,1.72c-0.49,1.86,0.09,3.01,1.73,3.44
			c0.76,0.2,1.44,0.11,2.04-0.27c0.6-0.38,1.01-0.97,1.22-1.77l0.47-1.79L142.29,96.98z"/>
		<path d="M126.73,112.84l3.81-6.65l12.9,7.38l-0.81,1.42l-11.59-6.63l-2.99,5.23L126.73,112.84z"/>
		<path d="M116.64,124.08l1.2-1.22l4.8,2.54l3.24-3.29l-2.6-4.77l1.19-1.21l7.36,13.71l-1.38,1.4L116.64,124.08z M124.05,126.12
			l5.68,3l-3.09-5.62L124.05,126.12z"/>
		<path d="M112.93,143.88l-0.52-9.56l-3.23-5.48l1.4-0.82l3.23,5.48l8.1,5.09l-1.59,0.94l-6.29-4.06l0.49,7.48L112.93,143.88z"/>
		<path d="M78.44,135.68l2.04-0.02l4.21,6.7l1.82-0.02l-0.08-6.75l1.64-0.02l0.18,14.86l-3.98,0.05c-1.34,0.02-2.4-0.31-3.18-0.99
			c-0.78-0.68-1.18-1.62-1.2-2.85c-0.01-0.91,0.26-1.72,0.82-2.43c0.56-0.71,1.33-1.2,2.32-1.47L78.44,135.68z M86.53,143.84
			l-2.06,0.02c-0.87,0.01-1.56,0.27-2.1,0.77c-0.53,0.5-0.79,1.13-0.79,1.88c0.02,1.66,0.99,2.47,2.9,2.45l2.11-0.03L86.53,143.84z"
			/>
		<path d="M66.93,133.1l7.13,1.8l-3.64,14.41l-7.07-1.79l0.37-1.46l5.49,1.39l1.13-4.46l-5.27-1.33l0.37-1.46l5.27,1.33l1.41-5.57
			l-5.54-1.4L66.93,133.1z"/>
		<path d="M54.71,127.18l6.42,3.59l-7.25,12.98l-6.37-3.56l0.73-1.32l4.94,2.76l2.25-4.02l-4.75-2.65l0.73-1.31l4.75,2.65l2.8-5.01
			l-4.99-2.79L54.71,127.18z"/>
		<path d="M44.21,118.11l5.52,5.32l-10.32,10.7l-1.18-1.14l9.27-9.61l-4.34-4.19L44.21,118.11z"/>
		<path d="M25.46,96.04l6.61,5.86l-1.49,0.43l-5.27-4.71l-2.04,6.82l-1.46,0.42l2.44-8.47L25.46,96.04z"/>
	</g>
	<g>
		<polygon points="94.62,83.42 77.83,73.73 77.83,93.12 		"/>
	</g>
</g>
</svg>
