<svg version="1.1" id="Capa_2" xmlns="http://www.w3.org/2000/svg" x="0" y="0" viewBox="0 0 166.85 166.85" style="enable-background:new 0 0 166.85 166.85" xml:space="preserve"><style>.st0{fill:#545454}.st2{fill:none;stroke:#fff;stroke-width:.75;stroke-miterlimit:10}.st3{stroke-width:2.001}.st3,.st4{fill:none;stroke:#000;stroke-miterlimit:10}</style><circle cx="83.42" cy="83.42" r="83.05" style="fill:#fff"/><path d="m17.96 68.41.98-3.44c.37-1.3 1.01-2.24 1.92-2.82.91-.58 1.97-.7 3.18-.36 1.22.35 2.08 1.01 2.58 2 .5.98.58 2.11.22 3.37l-.55 1.93 6.41 1.83-.45 1.57-14.29-4.08zm6.88.27.49-1.71c.53-1.85-.02-3.01-1.66-3.47-.76-.22-1.44-.14-2.05.23s-1.03.95-1.25 1.74l-.51 1.78 4.98 1.43zm15.87-15.54-3.94 6.57-12.75-7.64.84-1.4 11.46 6.87 3.1-5.17 1.29.77zm10.34-11.05-1.23 1.2-4.75-2.64-3.31 3.23 2.5 4.83-1.21 1.18-7.08-13.86 1.41-1.37 13.67 7.43zm-7.36-2.19-5.62-3.12 2.98 5.69 2.64-2.57zm11.46-17.52.32 9.57 3.12 5.55-1.42.8-3.11-5.55-8-5.26 1.61-.9 6.21 4.19-.33-7.48 1.6-.92zm34.31 8.9-2.05-.02-4.08-6.79-1.82-.01-.05 6.75-1.64-.01.12-14.86 3.98.03c1.34.01 2.39.36 3.16 1.05s1.15 1.65 1.14 2.87c-.01.91-.3 1.71-.87 2.41S86 23.87 85 24.12l4.46 7.16zm-7.92-8.33 2.07.02c.87.01 1.57-.23 2.11-.73s.82-1.11.82-1.86c.01-1.66-.94-2.49-2.85-2.51l-2.11-.02-.04 5.1zm19.39 11.15-7.09-1.95 3.94-14.33 7.03 1.93-.4 1.45-5.46-1.5-1.22 4.44 5.25 1.44-.4 1.45-5.25-1.44-1.52 5.54 5.51 1.52-.39 1.45zm12.09 6.16-6.35-3.72 7.51-12.82 6.29 3.69-.76 1.3-4.88-2.86-2.33 3.97 4.69 2.75-.76 1.3-4.69-2.75-2.9 4.95 4.93 2.89-.75 1.3zm10.33 9.29-5.41-5.43 10.54-10.48 1.15 1.16-9.47 9.42 4.25 4.27-1.06 1.06zm18.28 22.42-6.5-5.99 1.5-.4 5.18 4.82 2.18-6.78 1.47-.39-2.6 8.42-1.23.32zm7.55 25.14-.91 3.45c-.34 1.31-.97 2.26-1.87 2.86-.9.6-1.96.74-3.17.42-1.22-.32-2.1-.97-2.62-1.95s-.62-2.1-.28-3.36l.51-1.94-6.45-1.7.42-1.58 14.37 3.8zm-6.89-.13-.45 1.72c-.49 1.86.09 3.01 1.73 3.44.76.2 1.44.11 2.04-.27.6-.38 1.01-.97 1.22-1.77l.47-1.79-5.01-1.33zm-15.56 15.86 3.81-6.65 12.9 7.38-.81 1.42-11.59-6.63-2.99 5.23-1.32-.75zm-10.09 11.24 1.2-1.22 4.8 2.54 3.24-3.29-2.6-4.77 1.19-1.21 7.36 13.71-1.38 1.4-13.81-7.16zm7.41 2.04 5.68 3-3.09-5.62-2.59 2.62zm-11.12 17.76-.52-9.56-3.23-5.48 1.4-.82 3.23 5.48 8.1 5.09-1.59.94-6.29-4.06.49 7.48-1.59.93zm-34.49-8.2 2.04-.02 4.21 6.7 1.82-.02-.08-6.75 1.64-.02.18 14.86-3.98.05c-1.34.02-2.4-.31-3.18-.99-.78-.68-1.18-1.62-1.2-2.85-.01-.91.26-1.72.82-2.43.56-.71 1.33-1.2 2.32-1.47l-4.59-7.06zm8.09 8.16-2.06.02c-.87.01-1.56.27-2.1.77-.53.5-.79 1.13-.79 1.88.02 1.66.99 2.47 2.9 2.45l2.11-.03-.06-5.09zm-19.6-10.74 7.13 1.8-3.64 14.41-7.07-1.79.37-1.46 5.49 1.39 1.13-4.46-5.27-1.33.37-1.46 5.27 1.33 1.41-5.57-5.54-1.4.35-1.46zm-12.22-5.92 6.42 3.59-7.25 12.98-6.37-3.56.73-1.32 4.94 2.76 2.25-4.02-4.75-2.65.73-1.31 4.75 2.65 2.8-5.01-4.99-2.79.74-1.32zm-10.5-9.07 5.52 5.32-10.32 10.7-1.18-1.14 9.27-9.61-4.34-4.19 1.05-1.08zM25.46 96.04l6.61 5.86-1.49.43-5.27-4.71-2.04 6.82-1.46.42 2.44-8.47 1.21-.35zm69.16-12.62-16.79-9.69v19.39z"/></svg>
