<?xml version="1.0" encoding="utf-8"?>
<!-- Generator: Adobe Illustrator 24.1.0, SVG Export Plug-In . SVG Version: 6.00 Build 0)  -->
<svg version="1.1" id="Capa_2" xmlns="http://www.w3.org/2000/svg" xmlns:xlink="http://www.w3.org/1999/xlink" x="0px" y="0px"
	 viewBox="0 0 22.29 5.36" style="enable-background:new 0 0 22.29 5.36;" xml:space="preserve">
<style type="text/css">
	.st0{fill:#545454;}
	.st1{fill:#FFFFFF;}
	.st2{fill:none;stroke:#FFFFFF;stroke-width:0.75;stroke-miterlimit:10;}
	.st3{fill:none;stroke:#000000;stroke-width:2.001;stroke-miterlimit:10;}
	.st4{fill:none;stroke:#000000;stroke-miterlimit:10;}
</style>
<g>
	<g>
		<path class="st1" d="M0,5.36c0.3-0.43,0.65-0.82,1.02-1.19C1.38,3.8,1.78,3.45,2.19,3.12C3.02,2.47,3.92,1.9,4.88,1.44
			c0.96-0.47,1.98-0.83,3.03-1.08C8.96,0.12,10.05,0,11.13,0c0.54,0,1.08,0.05,1.62,0.1c0.54,0.09,1.07,0.16,1.6,0.3
			c0.53,0.12,1.04,0.29,1.55,0.46c0.25,0.1,0.5,0.2,0.74,0.3l0.37,0.16l0.36,0.18c1.91,0.96,3.59,2.27,4.92,3.86
			c-1.84-0.96-3.65-1.83-5.51-2.44L16.44,2.8l-0.35-0.1l-0.7-0.2c-0.47-0.09-0.94-0.23-1.41-0.29c-0.94-0.17-1.9-0.26-2.85-0.26
			c-1.9-0.01-3.81,0.3-5.67,0.9C4.52,3.15,3.6,3.52,2.7,3.94C1.78,4.35,0.89,4.83,0,5.36z"/>
	</g>
</g>
</svg>
