<svg version="1.1" id="Capa_2" xmlns="http://www.w3.org/2000/svg" x="0" y="0" viewBox="0 0 22.29 5.36" style="enable-background:new 0 0 22.29 5.36" xml:space="preserve"><style>.st0{fill:#545454}.st2{fill:none;stroke:#fff;stroke-width:.75;stroke-miterlimit:10}.st3{stroke-width:2.001}.st3,.st4{fill:none;stroke:#000;stroke-miterlimit:10}</style><path d="M0 5.36c.3-.43.65-.82 1.02-1.19.36-.37.76-.72 1.17-1.05.83-.65 1.73-1.22 2.69-1.68C5.84.97 6.86.61 7.91.36 8.96.12 10.05 0 11.13 0c.54 0 1.08.05 1.62.1.54.09 1.07.16 1.6.3.53.12 1.04.29 1.55.46.25.1.5.2.74.3l.37.16.36.18c1.91.96 3.59 2.27 4.92 3.86-1.84-.96-3.65-1.83-5.51-2.44l-.34-.12-.35-.1-.7-.2c-.47-.09-.94-.23-1.41-.29-.94-.17-1.9-.26-2.85-.26-1.9-.01-3.81.3-5.67.9-.94.3-1.86.67-2.76 1.09-.92.41-1.81.89-2.7 1.42z" style="fill:#fff"/></svg>
