<svg xmlns="http://www.w3.org/2000/svg" viewBox="0 0 26.47 11.83" style="enable-background:new 0 0 26.47 11.83" xml:space="preserve"><path d="M26.47 8.42c-.03.19-.05.37-.1.56-.36 1.36-1.24 2.22-2.57 2.63-.35.11-.73.16-1.09.16-2.96.01-5.93.01-8.89.01-.4 0-.68-.19-.78-.53-.02-.08-.03-.16-.03-.25V1.36c0-.34.15-.58.44-.76.57-.33 1.19-.48 1.84-.55.74-.08 1.48-.07 2.2.13 2.3.63 3.77 2.1 4.4 4.4l.03.1c0 .01.01.02.01.01.34-.03.66-.09.98-.09 1.63-.01 3.07 1.13 3.46 2.71.05.21.08.42.11.63-.01.17-.01.33-.01.48zm-14.06-.63c-.02.3-.04.75-.1 1.2-.08.69-.18 1.38-.28 2.06-.03.18-.05.37-.08.55-.02.15-.14.23-.32.23-.17 0-.28-.08-.3-.24-.12-1.03-.28-2.06-.36-3.09-.05-.62 0-1.25.02-1.87.03-.6.08-1.19.12-1.79l.15-1.89.06-.79c.01-.2.14-.34.32-.34.17 0 .29.13.31.33l.18 1.98c.05.59.09 1.17.14 1.76.04.59.08 1.17.14 1.9zm-3.79.06c-.03.36-.05.73-.09 1.1-.08.66-.16 1.32-.25 1.97-.03.23-.06.45-.1.68-.03.15-.13.23-.29.23s-.26-.08-.29-.23c-.06-.43-.13-.85-.18-1.28-.06-.56-.13-1.12-.17-1.68-.02-.52-.02-1.04 0-1.56.02-.58.07-1.15.12-1.72.04-.55.1-1.1.15-1.66l.06-.72c.02-.21.1-.33.25-.36.17-.03.32.07.35.24.04.3.07.61.1.92l.18 1.93c.06.71.11 1.42.16 2.14zm.46-.03c.04-.53.08-1.09.12-1.65l.15-1.61c.04-.39.07-.79.11-1.18.03-.25.22-.39.41-.3.12.06.18.16.2.29.03.27.06.53.08.8l.18 1.72c.06.65.14 1.3.15 1.95.01.51-.06 1.03-.12 1.54-.07.65-.17 1.29-.25 1.93-.01.1-.03.21-.05.31-.03.15-.14.23-.3.22-.15 0-.26-.08-.28-.23-.06-.4-.11-.8-.16-1.2-.06-.55-.12-1.09-.17-1.63-.03-.31-.05-.62-.07-.96zm-2.28.09c-.04.42-.09.92-.15 1.4-.08.69-.18 1.37-.28 2.05l-.03.22c-.02.15-.13.24-.28.24-.16 0-.29-.1-.31-.25-.08-.68-.17-1.35-.24-2.03-.05-.57-.11-1.16-.11-1.75 0-.64.07-1.29.13-1.93.05-.56.11-1.11.17-1.66l.06-.55c0-.02.01-.03.01-.05.04-.17.16-.28.31-.27.14 0 .27.13.29.29.06.48.11.96.16 1.44l.18 1.69c.03.37.06.73.09 1.16zm-3.23.17c.01-.86.14-1.52.26-2.18.02-.12.05-.25.07-.37.04-.18.14-.29.29-.29.14 0 .25.1.29.28.16.75.33 1.5.38 2.28.01.29-.03.58-.06.88-.05.53-.11 1.06-.17 1.59-.05.44-.1.88-.16 1.32-.02.14-.15.25-.27.25-.14 0-.25-.1-.27-.26-.07-.64-.15-1.27-.21-1.91-.06-.59-.11-1.18-.15-1.59zm-.63-1.13c-.12-.62-.21-1.25-.32-1.87-.03-.17-.12-.22-.29-.22s-.26.05-.29.22c-.11.62-.2 1.25-.32 1.87-.13.7-.03 1.38.05 2.07l.27 2.18c.02.16.14.26.29.26.15 0 .27-.1.29-.26l.27-2.18c.08-.69.18-1.37.05-2.07zM.82 6a.258.258 0 0 0-.23-.19c-.12.01-.2.09-.23.19C.2 6.62 0 7.24 0 7.89c0 .43.09.86.16 1.29.05.34.12.67.18 1.01.01.07.03.14.05.2.03.09.11.18.21.15.1.03.17-.05.21-.15.02-.07.04-.13.05-.2.06-.34.13-.67.18-1.01.06-.43.15-.86.16-1.29C1.18 7.24.98 6.62.82 6z" style="fill:#fff"/></svg>
