<?xml version="1.0" encoding="utf-8"?>
<!-- Generator: Adobe Illustrator 24.1.0, SVG Export Plug-In . SVG Version: 6.00 Build 0)  -->
<svg version="1.1" id="Capa_2" xmlns="http://www.w3.org/2000/svg" xmlns:xlink="http://www.w3.org/1999/xlink" x="0px" y="0px"
	 viewBox="0 0 26.47 11.83" style="enable-background:new 0 0 26.47 11.83;" xml:space="preserve">
<style type="text/css">
	.st0{fill:#545454;}
	.st1{fill:#FFFFFF;}
	.st2{fill:none;stroke:#FFFFFF;stroke-width:0.75;stroke-miterlimit:10;}
	.st3{fill:none;stroke:#000000;stroke-width:2.001;stroke-miterlimit:10;}
	.st4{fill:none;stroke:#000000;stroke-miterlimit:10;}
</style>
<g>
	<path class="st0" d="M26.47,8.42c-0.03,0.19-0.05,0.37-0.1,0.56c-0.36,1.36-1.24,2.22-2.57,2.63c-0.35,0.11-0.73,0.16-1.09,0.16
		c-2.96,0.01-5.93,0.01-8.89,0.01c-0.4,0-0.68-0.19-0.78-0.53c-0.02-0.08-0.03-0.16-0.03-0.25c0-3.21,0-6.43,0-9.64
		c0-0.34,0.15-0.58,0.44-0.76c0.57-0.33,1.19-0.48,1.84-0.55c0.74-0.08,1.48-0.07,2.2,0.13c2.3,0.63,3.77,2.1,4.4,4.4
		c0.01,0.03,0.02,0.07,0.03,0.1c0,0.01,0.01,0.02,0.01,0.01c0.34-0.03,0.66-0.09,0.98-0.09c1.63-0.01,3.07,1.13,3.46,2.71
		c0.05,0.21,0.08,0.42,0.11,0.63C26.47,8.11,26.47,8.27,26.47,8.42z"/>
	<path class="st0" d="M12.41,7.79c-0.02,0.3-0.04,0.75-0.1,1.2c-0.08,0.69-0.18,1.38-0.28,2.06c-0.03,0.18-0.05,0.37-0.08,0.55
		c-0.02,0.15-0.14,0.23-0.32,0.23c-0.17,0-0.28-0.08-0.3-0.24c-0.12-1.03-0.28-2.06-0.36-3.09c-0.05-0.62,0-1.25,0.02-1.87
		c0.03-0.6,0.08-1.19,0.12-1.79c0.05-0.63,0.1-1.26,0.15-1.89c0.02-0.26,0.04-0.53,0.06-0.79c0.01-0.2,0.14-0.34,0.32-0.34
		c0.17,0,0.29,0.13,0.31,0.33c0.06,0.66,0.12,1.32,0.18,1.98c0.05,0.59,0.09,1.17,0.14,1.76C12.31,6.48,12.35,7.06,12.41,7.79z"/>
	<path class="st0" d="M8.62,7.85c-0.03,0.36-0.05,0.73-0.09,1.1c-0.08,0.66-0.16,1.32-0.25,1.97c-0.03,0.23-0.06,0.45-0.1,0.68
		c-0.03,0.15-0.13,0.23-0.29,0.23c-0.16,0-0.26-0.08-0.29-0.23c-0.06-0.43-0.13-0.85-0.18-1.28C7.36,9.76,7.29,9.2,7.25,8.64
		C7.23,8.12,7.23,7.6,7.25,7.08c0.02-0.58,0.07-1.15,0.12-1.72c0.04-0.55,0.1-1.1,0.15-1.66c0.02-0.24,0.04-0.48,0.06-0.72
		c0.02-0.21,0.1-0.33,0.25-0.36c0.17-0.03,0.32,0.07,0.35,0.24c0.04,0.3,0.07,0.61,0.1,0.92C8.34,4.42,8.4,5.06,8.46,5.71
		C8.52,6.42,8.57,7.13,8.62,7.85z"/>
	<path class="st0" d="M9.08,7.82c0.04-0.53,0.08-1.09,0.12-1.65C9.25,5.63,9.3,5.09,9.35,4.56c0.04-0.39,0.07-0.79,0.11-1.18
		c0.03-0.25,0.22-0.39,0.41-0.3c0.12,0.06,0.18,0.16,0.2,0.29c0.03,0.27,0.06,0.53,0.08,0.8c0.06,0.57,0.12,1.14,0.18,1.72
		c0.06,0.65,0.14,1.3,0.15,1.95c0.01,0.51-0.06,1.03-0.12,1.54c-0.07,0.65-0.17,1.29-0.25,1.93c-0.01,0.1-0.03,0.21-0.05,0.31
		c-0.03,0.15-0.14,0.23-0.3,0.22c-0.15,0-0.26-0.08-0.28-0.23c-0.06-0.4-0.11-0.8-0.16-1.2C9.26,9.86,9.2,9.32,9.15,8.78
		C9.12,8.47,9.1,8.16,9.08,7.82z"/>
	<path class="st0" d="M6.8,7.91c-0.04,0.42-0.09,0.92-0.15,1.4C6.57,10,6.47,10.68,6.37,11.36c-0.01,0.07-0.02,0.15-0.03,0.22
		c-0.02,0.15-0.13,0.24-0.28,0.24c-0.16,0-0.29-0.1-0.31-0.25c-0.08-0.68-0.17-1.35-0.24-2.03C5.46,8.97,5.4,8.38,5.4,7.79
		c0-0.64,0.07-1.29,0.13-1.93C5.58,5.3,5.64,4.75,5.7,4.2c0.02-0.18,0.04-0.37,0.06-0.55c0-0.02,0.01-0.03,0.01-0.05
		c0.04-0.17,0.16-0.28,0.31-0.27c0.14,0,0.27,0.13,0.29,0.29C6.43,4.1,6.48,4.58,6.53,5.06c0.06,0.56,0.12,1.13,0.18,1.69
		C6.74,7.12,6.77,7.48,6.8,7.91z"/>
	<path class="st0" d="M3.57,8.08C3.58,7.22,3.71,6.56,3.83,5.9C3.85,5.78,3.88,5.65,3.9,5.53c0.04-0.18,0.14-0.29,0.29-0.29
		c0.14,0,0.25,0.1,0.29,0.28C4.64,6.27,4.81,7.02,4.86,7.8C4.87,8.09,4.83,8.38,4.8,8.68c-0.05,0.53-0.11,1.06-0.17,1.59
		c-0.05,0.44-0.1,0.88-0.16,1.32c-0.02,0.14-0.15,0.25-0.27,0.25c-0.14,0-0.25-0.1-0.27-0.26c-0.07-0.64-0.15-1.27-0.21-1.91
		C3.66,9.08,3.61,8.49,3.57,8.08z"/>
	<path class="st0" d="M2.94,6.95C2.82,6.33,2.73,5.7,2.62,5.08C2.59,4.91,2.5,4.86,2.33,4.86c-0.17,0-0.26,0.05-0.29,0.22
		C1.93,5.7,1.84,6.33,1.72,6.95c-0.13,0.7-0.03,1.38,0.05,2.07c0.09,0.73,0.18,1.46,0.27,2.18c0.02,0.16,0.14,0.26,0.29,0.26
		c0.15,0,0.27-0.1,0.29-0.26c0.09-0.73,0.18-1.46,0.27-2.18C2.97,8.33,3.07,7.65,2.94,6.95z"/>
	<path class="st0" d="M0.82,6C0.79,5.9,0.71,5.82,0.59,5.81C0.47,5.82,0.39,5.9,0.36,6C0.2,6.62,0,7.24,0,7.89
		c0,0.43,0.09,0.86,0.16,1.29c0.05,0.34,0.12,0.67,0.18,1.01c0.01,0.07,0.03,0.14,0.05,0.2c0.03,0.09,0.11,0.18,0.21,0.15
		c0.1,0.03,0.17-0.05,0.21-0.15c0.02-0.07,0.04-0.13,0.05-0.2c0.06-0.34,0.13-0.67,0.18-1.01c0.06-0.43,0.15-0.86,0.16-1.29
		C1.18,7.24,0.98,6.62,0.82,6z"/>
</g>
</svg>
