<?xml version="1.0" encoding="utf-8"?>
<!-- Generator: Adobe Illustrator 24.1.0, SVG Export Plug-In . SVG Version: 6.00 Build 0)  -->
<svg version="1.1" xmlns="http://www.w3.org/2000/svg" xmlns:xlink="http://www.w3.org/1999/xlink" x="0px" y="0px"
	 viewBox="0 0 229.71 202.13" style="enable-background:new 0 0 229.71 202.13;" xml:space="preserve">
<style type="text/css">
	.st0{fill:#FFFFFF;}
</style>
<g id="ARTE">
</g>
<g id="Capa_2">
	<g>
		<path class="st0" d="M193.45,154.9l-21.12,31.74c-0.37,0.56-1,0.89-1.67,0.89H40.27c-1.6,0-2.55-1.78-1.67-3.11l19.64-29.53
			H193.45z"/>
		<path class="st0" d="M15.13,74.75l43.12,80.15l21.05-31.64c0.41-0.61,0.45-1.4,0.1-2.05L37.85,44c-0.72-1.33-2.6-1.42-3.44-0.16
			L15.22,72.69C14.81,73.31,14.78,74.1,15.13,74.75z"/>
		<path class="st0" d="M82.73,74.75l42.88,79.71c0.11,0.2,0.39,0.22,0.52,0.02l20.76-31.21c0.41-0.61,0.45-1.4,0.1-2.05L105.45,44
			c-0.72-1.33-2.6-1.42-3.44-0.16L82.82,72.69C82.41,73.31,82.38,74.1,82.73,74.75z"/>
		<path class="st0" d="M150.33,74.75l43.12,80.15l21.05-31.64c0.41-0.61,0.45-1.4,0.1-2.05L173.05,44c-0.72-1.33-2.6-1.42-3.44-0.16
			l-19.19,28.85C150.01,73.31,149.98,74.1,150.33,74.75z"/>
		<path class="st0" d="M57.78,36.45c1.21-1.75,2.65-3.33,4.15-4.85c1.5-1.53,3.11-2.94,4.8-4.27c3.37-2.66,7.06-4.98,10.98-6.87
			c3.92-1.9,8.08-3.39,12.38-4.39c4.3-0.99,8.74-1.47,13.17-1.47c2.22-0.02,4.43,0.2,6.64,0.39c2.19,0.36,4.38,0.64,6.52,1.22
			c2.16,0.47,4.24,1.2,6.32,1.89c1.02,0.39,2.03,0.82,3.04,1.23l1.51,0.64l1.46,0.73c7.78,3.9,14.67,9.24,20.11,15.74
			c-7.53-3.9-14.92-7.44-22.51-9.93l-1.41-0.49l-1.44-0.39l-2.86-0.81c-1.94-0.39-3.83-0.94-5.77-1.2
			c-3.85-0.7-7.74-1.06-11.63-1.04c-7.78-0.06-15.57,1.23-23.16,3.67c-3.81,1.19-7.56,2.69-11.27,4.39
			C65.06,32.34,61.41,34.26,57.78,36.45z"/>
	</g>
</g>
</svg>
