<svg xmlns="http://www.w3.org/2000/svg" viewBox="0 0 17.25 14.02" style="enable-background:new 0 0 17.25 14.02" xml:space="preserve"><path d="M5.42 14.02c6.51 0 10.07-5.39 10.07-10.07 0-.15 0-.31-.01-.46.69-.5 1.29-1.12 1.77-1.83-.63.28-1.32.47-2.03.56.73-.44 1.29-1.13 1.56-1.96-.69.41-1.45.7-2.25.86a3.547 3.547 0 0 0-6.04 3.23C5.55 4.2 2.95 2.79 1.2.65a3.57 3.57 0 0 0-.48 1.78c0 1.23.62 2.31 1.57 2.95-.56-.02-1.11-.18-1.6-.45v.05a3.54 3.54 0 0 0 2.84 3.47 3.65 3.65 0 0 1-1.6.06 3.545 3.545 0 0 0 3.31 2.46 7.1 7.1 0 0 1-5.23 1.47 10 10 0 0 0 5.41 1.58" style="fill:#fff"/></svg>
