<?xml version="1.0" encoding="utf-8"?>
<!-- Generator: Adobe Illustrator 24.1.0, SVG Export Plug-In . SVG Version: 6.00 Build 0)  -->
<svg version="1.1" id="Capa_2" xmlns="http://www.w3.org/2000/svg" xmlns:xlink="http://www.w3.org/1999/xlink" x="0px" y="0px"
	 viewBox="0 0 17.25 14.02" style="enable-background:new 0 0 17.25 14.02;" xml:space="preserve">
<style type="text/css">
	.st0{fill:#545454;}
	.st1{fill:#FFFFFF;}
	.st2{fill:none;stroke:#FFFFFF;stroke-width:0.75;stroke-miterlimit:10;}
	.st3{fill:none;stroke:#000000;stroke-width:2.001;stroke-miterlimit:10;}
	.st4{fill:none;stroke:#000000;stroke-miterlimit:10;}
</style>
<path class="st0" d="M5.42,14.02c6.51,0,10.07-5.39,10.07-10.07c0-0.15,0-0.31-0.01-0.46c0.69-0.5,1.29-1.12,1.77-1.83
	c-0.63,0.28-1.32,0.47-2.03,0.56c0.73-0.44,1.29-1.13,1.56-1.96c-0.69,0.41-1.45,0.7-2.25,0.86C13.88,0.43,12.96,0,11.94,0
	C9.99,0,8.4,1.59,8.4,3.54c0,0.28,0.03,0.55,0.09,0.81C5.55,4.2,2.95,2.79,1.2,0.65C0.89,1.19,0.72,1.8,0.72,2.43
	c0,1.23,0.62,2.31,1.57,2.95C1.73,5.36,1.18,5.2,0.69,4.93c0,0.01,0,0.03,0,0.05c0,1.71,1.22,3.15,2.84,3.47
	C3.23,8.53,2.91,8.57,2.6,8.57c-0.23,0-0.45-0.02-0.67-0.06c0.45,1.41,1.76,2.43,3.31,2.46c-1.21,0.95-2.74,1.52-4.39,1.52
	c-0.28,0-0.56-0.02-0.84-0.05C1.57,13.44,3.43,14.02,5.42,14.02"/>
</svg>
